<?xml version="1.0" encoding="UTF-8" standalone="no"?>

<svg
   xmlns:dc="http://purl.org/dc/elements/1.1/"
   xmlns:cc="http://creativecommons.org/ns#"
   xmlns:rdf="http://www.w3.org/1999/02/22-rdf-syntax-ns#"
   xmlns:svg="http://www.w3.org/2000/svg"
   xmlns="http://www.w3.org/2000/svg"
   width="850"
   height="850"
   id="svg2"
     xmlns:xlink="http://www.w3.org/1999/xlink"
     version="1.1" onload="superpath.expandPaths()">
  <script type="application/ecmascript" xlink:href="SuperPathExpander.js" />
  <defs
     id="defs4">
    <filter
       id="filter3073">
      <feGaussianBlur
         stdDeviation="12.375"
         id="feGaussianBlur3075" />
    </filter>
    <path d=" m 0,137.5 
           c 34.5,0 62.5,28 62.5,62.5 0,34.5 -28,62.5 -62.5,62.5 -34.5,0 -62.5,-28 -62.5,-62.5 0,-34.5 28,-62.5 62.5,-62.5 z" />
    <path id="p1" d="C 204.2,25 25,204.2 25,425 25,645.8 204.2,825 425,825 314.6,825 225,735.4 225,625 225,514.6 314.6,425 425,425 535.4,425 625,335.4 625,225 625,114.6 535.4,25 425,25" />
    <path id="p2" d="L 204.2,55 425,25" />
  </defs>
  <g>
    <g transform="matrix(0,-1,1,0,0,850)">
      <g
         transform="matrix(-1,0,0,-1,825,825)"
         style="fill:#000000;fill-opacity:1"
         id="gYin">
        <path
           style="fill:#FF0000;fill-opacity:1;stroke:none"
           d="M 425,25 
           C 204.2,25 25,204.2 25,425 25,645.8 204.2,825 425,825 314.6,825 225,735.4 225,625 225,514.6 314.6,425 425,425 535.4,425 625,335.4 625,225 625,114.6 535.4,25 425,25 z"
           transform="matrix(-1,0,0,-1,825,825)"
           id="pathYinBG" />
      </g>
      <g
         id="gYang">
        <path
           id="pathYangBG"
           d="m 425,25 
           c 110.4,0 200,89.6 200,200 0,110.4 -89.6,200 -200,200 -110.4,0 -200,89.6 -200,200 0,110.4 89.6,200 200,200 
           C 645.8,825 825,645.8 825,425 825,204.2 645.8,25 425,25 z 
           m 0,537.5 c 34.5,0 62.5,28 62.5,62.5 0,34.5 -28,62.5 -62.5,62.5 -34.5,0 -62.5,-28 -62.5,-62.5 0,-34.5 28,-62.5 62.5,-62.5 z"
           style="fill:#ffff00;fill-opacity:1;stroke:none" />
        <path
           transform="matrix(1.25,0,0,-1.25,-75,475)"
           d="m 450,200 c 0,27.61424 -22.38576,50 -50,50 -27.61424,0 -50,-22.38576 -50,-50 0,-27.61424 22.38576,-50 50,-50 27.61424,0 50,22.38576 50,50 z"
           id="pathYangS"
           style="fill:#ffffff;fill-opacity:1;stroke:none" />
      </g>
      <g transform="matrix(-1,0,0,-1,825,825)" style="fill:#FF00FF;fill-opacity:1">
        <path d="M 425,25 P#p2 L 440,55 z" />
      </g>
    </g>
  </g>
</svg>
