<svg xmlns:svg="http://www.w3.org/2000/svg" xmlns="http://www.w3.org/2000/svg" xmlns:xlink="http://www.w3.org/1999/xlink" width="100%" height="100%" viewBox="0 450 500 500" style="display:inline" version="1.1" onload="superpath.expandPaths()">
  <script type="application/ecmascript" xlink:href="../Js/SuperPathExpander.js"/>
  <g id="CoteBretonne">
    <path d="m412,716c3,2 0,7 -1,9c0,3 -1,6 -1,9c0,3 -5,1 -6,3c1,3 -2,7 -5,4c2,-3 -2,-3 -4,-2c-2,3 -5,1 -5,-2c-1,1 -4,-1 -4,2c-2,2 -2,6 -4,7c-2,1 -4,0 -5,-1c-3,2 -6,1 -7,-2c-1,0 -3,2 -4,4c0,-1 0,-1 -1,0c-1,1 -3,0 -2,-2c0,-1 1,-3 0,-4c-1,-1 0,-4 2,-3c1,0 2,2 3,1c2,-1 3,0 5,0c1,-1 2,-1 4,0c2,0 1,-1 -1,-1c-1,-2 -2,0 -4,0c-2,-1 -4,-1 -5,-2c-1,-2 -3,-1 -4,-2c-2,-3 -5,-2 -7,0c-2,0 -5,-2 -7,0c-1,2 -4,0 -1,0c1,0 0,-2 2,-2c2,-1 3,-2 3,-3c-1,0 -2,1 -4,1c0,-1 -4,0 -3,0c2,0 2,3 0,3c-1,0 -3,-1 -4,-2c1,2 0,4 -1,5c-1,1 -3,-1 -4,-1c-1,-1 -3,0 -5,0c-1,0 -4,0 -5,1c-1,2 -2,0 -4,0c-1,-1 -3,-1 -3,-3c0,-3 -2,-5 -4,-6c-2,0 -1,-1 -2,-1c-2,0 -2,-3 0,-3c1,0 2,0 3,0c1,1 3,1 3,3c0,2 1,-2 3,0c1,1 2,1 2,-2c1,-1 1,2 2,3c0,-2 2,-2 2,0c1,0 2,1 4,0c2,2 1,-1 3,-1c-1,-2 0,-3 1,-3c0,-3 1,-1 2,-3c1,-1 2,-1 2,-3c1,-1 0,-2 -1,-4c1,-1 -1,-3 -2,-1c2,1 2,2 2,4c-1,-1 -4,-1 -2,1c2,1 -1,2 -1,2c1,-2 -2,-2 -3,-2c-1,-2 -2,-3 -4,-4c1,-1 3,1 4,1c2,1 1,0 0,-1c-1,-2 -1,-3 -2,-2c-1,1 -3,-2 -3,0c2,1 1,2 -1,2c-2,-1 -3,1 -5,0c-1,-1 -2,-1 -2,1c-1,1 0,3 -2,2c-3,-2 -2,1 -2,2c-2,1 -3,-1 -4,-1c-1,2 0,-1 0,-2c-2,0 -2,0 -3,1c0,-1 -1,-3 0,-5c3,-1 -1,0 -1,-2c-1,-1 -1,-2 -2,-3c-1,-1 -1,2 0,2c0,2 2,2 1,4c0,1 -1,2 -1,4c0,2 2,2 2,4c1,1 2,3 1,3c-2,0 -2,-3 -3,-1c-2,1 0,-2 -1,-3c-1,0 -2,-3 -3,-2c1,1 2,4 0,3c-2,-1 -1,-4 -2,-6c-2,0 -1,3 -1,4c1,2 -1,1 -2,1c-1,-1 -2,1 -4,0c-1,0 -3,1 -4,0c1,-1 3,-2 0,-3c-1,0 -2,-3 -3,-1c0,2 1,3 1,4c-1,3 -2,6 -2,9c1,1 2,2 1,4c1,1 1,2 3,3c0,1 2,3 -1,2c-1,1 -2,-2 -3,-1c-2,1 -1,-2 -1,-3c0,-2 -1,-4 -1,-6c1,-1 2,-2 2,-3c1,-4 1,-7 -1,-10c0,-2 -1,-3 -2,-3c-1,-1 -4,-3 -4,-4c1,-2 1,-3 0,-5c0,-1 2,-2 3,-3c2,0 3,1 4,-1c1,0 2,-2 4,-1c1,0 -1,-2 0,-3c1,-2 0,-4 -1,-2c-2,1 -1,-2 -1,-3c1,-2 -1,-2 -1,0c-1,1 -2,-1 -3,-1c-2,-2 -3,1 -1,1c2,0 1,3 2,4c1,2 -1,2 -3,2c-1,0 0,3 -2,2c-2,-1 1,1 0,2c0,1 -2,1 -2,3c1,1 0,3 -2,2c-1,-2 -2,-4 -4,-5c-2,-1 -4,-2 -6,-3c-1,0 -3,-1 -4,0c-2,-1 2,-1 3,-1c1,-1 2,0 3,1c1,2 3,0 1,-1c-1,-1 -2,-2 -4,-2c-1,-1 -3,1 -3,0c0,-1 2,-2 1,-3c0,-2 3,-1 3,-2c2,-1 3,-3 3,-5c0,-1 3,-2 2,-2c-1,0 -2,2 -4,2c-1,0 0,3 -2,2c-2,1 -3,2 -3,3c-2,1 -4,-2 -5,0c1,0 3,0 3,2c1,2 -2,4 -4,3c-1,0 -3,-1 -5,0c-1,1 -2,-1 -3,-2c-1,0 -1,-2 -2,-3c-1,-2 -1,-5 -3,-6c0,-1 -1,-2 -1,-2c1,-2 2,-4 1,-5 c-2,1 -4,-1 -5,-1c-3,-1 -6,0 -8,-2c0,-2 -2,-1 -3,-1c-2,0 -3,-2 -4,-3c-2,0 0,-3 -2,-2c-1,0 -2,1 -3,2c-3,1 -6,1 -8,-1c-2,-1 -3,1 -4,1c0,-2 0,-3 -1,-4c-1,-2 -3,-3 -4,-5c0,-1 2,-2 -1,-2c-2,-1 1,-2 0,-3c0,-1 -3,-1 -3,-2c0,-2 -2,-2 -2,-4c-1,1 -2,-1 -3,-1c-2,1 0,1 -1,3c-1,1 1,3 0,4c-2,1 -4,2 -6,2c1,-1 4,0 3,-2c-1,0 -2,0 -3,0c-1,1 -2,2 -2,0c0,-2 -2,-3 -3,-2c-2,1 -3,-1 -3,-2c-1,-1 0,-2 -2,-2c0,-2 -2,-3 -2,-5c1,-2 -1,-1 -1,1c0,2 1,3 2,4c0,2 2,3 1,4c-1,0 -2,0 -3,1c-2,1 -2,-1 -3,-1c0,-1 0,-4 -2,-3c0,1 -2,2 -1,4c0,1 3,1 1,2c-1,2 3,0 3,2c-1,2 -3,4 -4,5c-2,0 -3,1 -4,1c-2,0 -3,0 -5,0c-1,0 -3,-1 -4,-1c-1,0 -2,-1 -4,-1c-1,0 -2,-1 -4,0c-2,0 -1,-2 -1,-4c-1,-1 1,-2 3,-2c1,-2 0,-5 0,-8c-1,-2 -1,-4 -2,-6c-1,-2 -2,-5 -4,-7c-1,-3 -4,-6 -6,-8c-2,-1 -3,-4 -5,-4c-2,0 -1,-2 -2,-2c-2,0 -3,3 -5,2c-2,0 -2,-1 -3,-2c-1,-1 -3,-1 -4,-3c-1,0 -2,1 -3,0c-2,-1 -4,0 -5,-2c-1,0 -4,-1 -2,-1c2,0 1,-2 1,-4c0,-2 3,0 4,0c1,1 2,-2 3,-1c2,1 4,1 6,0c1,0 3,-1 5,0c1,1 2,0 3,-1c3,-1 6,1 8,-1c2,-1 4,0 6,-1c3,0 5,0 7,-1c3,0 3,3 5,3c2,0 3,2 4,0c1,-1 2,-3 1,-4c1,-2 2,-4 1,-6c-1,0 -2,-2 -2,-3c1,-3 -1,-6 -3,-7c-2,0 -4,2 -5,-1c0,-1 -1,-2 -3,-1c-1,-1 -1,-2 -3,-2c0,-2 -1,-2 -3,-2c-1,-1 -4,-1 -5,1c0,1 -2,3 -2,4c-1,2 -3,3 -4,5c-1,2 -3,0 -2,-1c2,-2 1,-5 0,-7c0,-1 -1,-3 1,-3c2,-1 2,-4 0,-4c-2,0 -3,1 -5,0c0,-1 -1,-3 -3,-1c1,-1 1,-3 1,-4c1,-1 2,-1 3,1c2,1 3,-2 2,-4c0,-1 0,-4 2,-4c1,-1 2,-2 4,-2c1,1 -1,2 -1,3c0,2 -3,3 -1,4c0,1 2,3 3,1c0,-2 2,0 2,1c1,1 3,0 4,0c2,-1 4,0 6,0c0,1 1,3 2,3c2,0 4,0 6,-1c2,0 4,-2 6,-1c1,0 4,0 4,1c-2,0 -4,1 -1,2c2,1 3,-1 5,-2c1,1 3,1 5,0c2,0 -2,0 -2,0c-2,0 -4,-1 -3,-2c1,-2 -1,-1 -2,0c-1,0 -1,-1 -3,-2c1,-3 -1,0 -2,0c-1,-2 -4,0 -3,-2c1,-1 2,-1 2,-2c1,0 4,0 3,-2c0,-1 3,-1 1,-1c-2,-1 -3,0 -4,1c-1,1 -3,0 -1,-1c-1,-1 -2,2 -4,1c-1,-1 -2,1 -3,2c-1,1 -2,1 -4,1c-1,-1 3,-3 0,-3c-2,1 -3,1 -5,2c-1,-1 2,-2 1,-3c0,-2 2,-4 3,-4c2,-1 2,-3 4,-3c3,-1 7,-1 10,-3c1,-1 3,-2 1,-2c-3,1 -6,2 -9,3c-2,1 -4,0 -6,0c-2,1 -5,1 -7,2c-3,1 -5,3 -8,3c-4,1 -6,3 -9,2c-1,-1 -2,-1 -3,-2c-2,0 -4,-2 -5,0c-1,1 0,3 -2,3c-2,0 -4,-1 -6,0c-2,0 -2,-3 -3,-4c1,-1 -1,-4 1,-3c2,0 3,-3 1,-4c-2,-1 1,-3 -1,-3c-1,-1 -1,-3 0,-4c1,-1 1,-4 2,-6c1,-1 2,1 3,-1c0,-1 -2,0 -2,-2c-1,-2 -2,-5 0,-6c2,-1 1,-3 3,-3c1,-2 2,-3 3,-4c1,0 3,2 3,0c-1,-2 2,-2 3,-1c1,-1 2,-2 3,-1c2,0 3,-1 4,0c1,1 3,2 3,3c2,1 1,0 1,-2c-1,-2 -4,0 -2,-2c0,-2 0,-4 2,-4c0,1 0,2 2,2c2,1 3,1 5,0c-1,0 -4,-1 -2,-2c1,-1 -3,-1 -2,-3c2,0 3,1 3,-1c1,0 3,0 4,0c0,3 3,2 5,2c1,-1 2,-3 3,-1c1,0 2,-1 4,0c1,-1 -2,-2 -2,-2c0,-2 2,-1 3,-1c3,-1 4,-2 6,-3c1,-1 3,-1 4,1c1,0 2,1 2,2c0,1 0,3 -2,3c0,2 3,2 3,1c1,-1 2,-2 4,-2c2,0 3,0 4,1c1,1 5,0 3,-1c-2,1 -3,-1 -1,-2c2,-1 3,-4 6,-4c2,0 5,-1 7,0c1,2 3,-1 3,1c1,2 1,2 2,1c2,0 0,-4 1,-4c2,0 3,-1 4,-1c1,-1 3,0 3,-1c1,-2 3,-2 3,-1c0,2 -1,4 -1,5c2,1 0,2 1,4c2,0 2,2 1,3c0,3 0,2 1,1c2,0 2,-2 3,-3c1,0 4,1 2,1c-1,2 0,4 2,5c2,0 3,1 3,3c2,1 1,-2 1,-3c0,-1 0,-2 0,-4c-1,-1 -1,-4 0,-2c0,1 1,3 2,1c0,-1 -2,-3 0,-4c1,0 0,-3 2,-3c1,2 1,0 2,-2c1,1 1,2 2,3c1,1 3,-1 5,0c1,0 4,1 4,3c2,0 3,2 5,1c1,0 3,-1 3,0c-1,1 -1,3 1,3c1,2 -3,0 0,0 c1,0 2,-2 3,0c0,2 3,2 4,0c1,-1 -1,-2 -1,-4c0,-1 0,-3 1,-4c1,-1 3,-1 4,0c3,-1 0,-1 0,-2c0,-2 -1,-3 -2,-4c-2,0 -2,-1 -2,-3c1,-1 1,-4 3,-3c2,1 4,-1 3,-2c-1,-1 0,-3 1,-3c2,1 2,-3 3,-1c1,1 2,0 3,1c0,-2 2,-2 2,0c1,1 2,3 4,2c2,0 -1,2 -1,3c1,1 3,0 5,0c2,0 1,-3 3,-3c1,0 3,0 4,-1c1,-1 3,-1 5,0c1,1 2,-1 3,-1c1,2 2,-1 3,-2c1,-1 2,-3 4,-2c1,1 -2,3 0,4c1,2 0,4 -1,5c0,2 -2,3 -1,4c0,-1 1,-3 2,-3c2,-1 2,-4 3,-5c2,0 2,-1 4,-2c1,-1 2,0 3,-1c0,-1 2,-1 3,-2c2,-1 2,1 2,2c0,1 1,3 0,4c-2,1 1,2 0,3c0,1 -2,3 -2,4c0,3 -4,3 -3,6c-1,1 -1,3 0,1c1,-2 3,-2 3,-3c1,-2 1,-4 2,-6c1,-1 1,-3 3,-2c1,2 3,0 4,0c2,1 0,2 1,3c1,1 -2,1 -2,3c-2,0 -3,1 -1,1c1,0 1,0 1,0c0,1 -1,1 0,2c1,2 4,1 6,3c1,1 3,-2 3,-1c-1,1 2,1 1,3c-1,1 1,2 -1,3c-1,2 2,2 2,3c0,1 1,2 2,3c2,0 1,2 2,4c1,2 4,1 5,3c0,2 3,2 2,4c0,2 0,4 1,6c-1,1 -2,3 0,3c1,1 2,2 3,2c2,1 1,3 3,4c1,0 3,1 4,2c0,1 0,2 -1,3c-2,1 1,0 1,2c0,2 2,1 2,3c1,2 2,2 2,0c0,-2 -1,-4 2,-5c1,1 2,3 3,2c2,-1 3,-3 4,-3c2,-1 2,-3 4,-4c1,-2 2,-3 3,-4c2,-1 3,1 4,-1c2,-1 4,-2 6,-3c1,-1 2,-3 0,-3c-2,0 -1,-2 1,-2c2,0 4,-1 6,0c0,1 0,4 1,2c1,-1 3,-1 4,-2c1,-1 2,-1 3,-2c1,0 3,0 3,-2c0,-2 2,-3 2,-1c-1,2 1,3 3,3c0,1 -2,2 -2,3c0,2 -3,3 -4,5c1,1 1,3 3,1c1,-2 3,-2 4,-3c1,-1 3,-3 3,-1c-1,1 1,2 0,4c-1,1 1,2 2,2c0,2 0,3 1,4c0,2 1,3 2,1c1,-1 0,-3 1,-5c2,1 -1,5 1,6c2,0 4,-2 2,-2c-1,-2 1,-3 2,-5c1,0 1,2 3,2c-1,1 0,3 0,4 c2,3 5,4 8,5c0,1 0,5 2,2c1,-2 3,-2 4,-2l0,0 " style="fill:none;stroke:#0000FF;stroke-width:10"/>
  </g>
  <g id="Finistere">
    <path d="m 244,512c-1,1 -2,2 -3,3c-1,3 -1,7 1,10c-2,5 7,2 5,8c-3,2 2,1 3,3c4,2 1,4 -1,6c-5,2 -6,8 -1,11c3,1 1,3 -1,3c-4,1 -3,6 -5,8c4,2 8,3 6,7c1,2 -2,7 1,7c5,-1 -2,3 -1,4c4,1 3,5 2,7c-4,1 -5,7 -1,9c4,5 -4,0 -4,3c-3,1 -7,1 -9,3c-4,3 -9,0 -11,5c0,2 -4,7 0,6c5,0 -2,7 3,7c3,3 2,7 4,10c0,3 2,6 5,4c3,0 7,-2 10,2c3,1 4,3 5,6c1,0 3,-2 5,-2c5,-4 5,6 4,8c-4,2 0,7 -2,9c-3,-1 -6,1 -6,4c-3,3 -8,3 -8,-2c-4,1 -3,6 -1,9c1,1 0,3 -1,5 c-2,1 -4,-1 -5,-1c-3,-1 -6,0 -8,-2c0,-2 -2,-1 -3,-1c-2,0 -3,-2 -4,-3c-2,0 0,-3 -2,-2c-1,0 -2,1 -3,2c-3,1 -6,1 -8,-1c-2,-1 -3,1 -4,1c0,-2 0,-3 -1,-4c-1,-2 -3,-3 -4,-5c0,-1 2,-2 -1,-2c-2,-1 1,-2 0,-3c0,-1 -3,-1 -3,-2c0,-2 -2,-2 -2,-4c-1,1 -2,-1 -3,-1c-2,1 0,1 -1,3c-1,1 1,3 0,4c-2,1 -4,2 -6,2c1,-1 4,0 3,-2c-1,0 -2,0 -3,0c-1,1 -2,2 -2,0c0,-2 -2,-3 -3,-2c-2,1 -3,-1 -3,-2c-1,-1 0,-2 -2,-2c0,-2 -2,-3 -2,-5c1,-2 -1,-1 -1,1c0,2 1,3 2,4c0,2 2,3 1,4c-1,0 -2,0 -3,1c-2,1 -2,-1 -3,-1c0,-1 0,-4 -2,-3c0,1 -2,2 -1,4c0,1 3,1 1,2c-1,2 3,0 3,2c-1,2 -3,4 -4,5c-2,0 -3,1 -4,1c-2,0 -3,0 -5,0c-1,0 -3,-1 -4,-1c-1,0 -2,-1 -4,-1c-1,0 -2,-1 -4,0c-2,0 -1,-2 -1,-4c-1,-1 1,-2 3,-2c1,-2 0,-5 0,-8c-1,-2 -1,-4 -2,-6c-1,-2 -2,-5 -4,-7c-1,-3 -4,-6 -6,-8c-2,-1 -3,-4 -5,-4c-2,0 -1,-2 -2,-2c-2,0 -3,3 -5,2c-2,0 -2,-1 -3,-2c-1,-1 -3,-1 -4,-3c-1,0 -2,1 -3,0c-2,-1 -4,0 -5,-2c-1,0 -4,-1 -2,-1c2,0 1,-2 1,-4c0,-2 3,0 4,0c1,1 2,-2 3,-1c2,1 4,1 6,0c1,0 3,-1 5,0c1,1 2,0 3,-1c3,-1 6,1 8,-1c2,-1 4,0 6,-1c3,0 5,0 7,-1c3,0 3,3 5,3c2,0 3,2 4,0c1,-1 2,-3 1,-4c1,-2 2,-4 1,-6c-1,0 -2,-2 -2,-3c1,-3 -1,-6 -3,-7c-2,0 -4,2 -5,-1c0,-1 -1,-2 -3,-1c-1,-1 -1,-2 -3,-2c0,-2 -1,-2 -3,-2c-1,-1 -4,-1 -5,1c0,1 -2,3 -2,4c-1,2 -3,3 -4,5c-1,2 -3,0 -2,-1c2,-2 1,-5 0,-7c0,-1 -1,-3 1,-3c2,-1 2,-4 0,-4c-2,0 -3,1 -5,0c0,-1 -1,-3 -3,-1c1,-1 1,-3 1,-4c1,-1 2,-1 3,1c2,1 3,-2 2,-4c0,-1 0,-4 2,-4c1,-1 2,-2 4,-2c1,1 -1,2 -1,3c0,2 -3,3 -1,4c0,1 2,3 3,1c0,-2 2,0 2,1c1,1 3,0 4,0c2,-1 4,0 6,0c0,1 1,3 2,3c2,0 4,0 6,-1c2,0 4,-2 6,-1c1,0 4,0 4,1c-2,0 -4,1 -1,2c2,1 3,-1 5,-2c1,1 3,1 5,0c2,0 -2,0 -2,0c-2,0 -4,-1 -3,-2c1,-2 -1,-1 -2,0c-1,0 -1,-1 -3,-2c1,-3 -1,0 -2,0c-1,-2 -4,0 -3,-2c1,-1 2,-1 2,-2c1,0 4,0 3,-2c0,-1 3,-1 1,-1c-2,-1 -3,0 -4,1c-1,1 -3,0 -1,-1c-1,-1 -2,2 -4,1c-1,-1 -2,1 -3,2c-1,1 -2,1 -4,1c-1,-1 3,-3 0,-3c-2,1 -3,1 -5,2c-1,-1 2,-2 1,-3c0,-2 2,-4 3,-4c2,-1 2,-3 4,-3c3,-1 7,-1 10,-3c1,-1 3,-2 1,-2c-3,1 -6,2 -9,3c-2,1 -4,0 -6,0c-2,1 -5,1 -7,2c-3,1 -5,3 -8,3c-4,1 -6,3 -9,2c-1,-1 -2,-1 -3,-2c-2,0 -4,-2 -5,0c-1,1 0,3 -2,3c-2,0 -4,-1 -6,0c-2,0 -2,-3 -3,-4c1,-1 -1,-4 1,-3c2,0 3,-3 1,-4c-2,-1 1,-3 -1,-3c-1,-1 -1,-3 0,-4c1,-1 1,-4 2,-6c1,-1 2,1 3,-1c0,-1 -2,0 -2,-2c-1,-2 -2,-5 0,-6c2,-1 1,-3 3,-3c1,-2 2,-3 3,-4c1,0 3,2 3,0c-1,-2 2,-2 3,-1c1,-1 2,-2 3,-1c2,0 3,-1 4,0c1,1 3,2 3,3c2,1 1,0 1,-2c-1,-2 -4,0 -2,-2c0,-2 0,-4 2,-4c0,1 0,2 2,2c2,1 3,1 5,0c-1,0 -4,-1 -2,-2c1,-1 -3,-1 -2,-3c2,0 3,1 3,-1c1,0 3,0 4,0c0,3 3,2 5,2c1,-1 2,-3 3,-1c1,0 2,-1 4,0c1,-1 -2,-2 -2,-2c0,-2 2,-1 3,-1c3,-1 4,-2 6,-3c1,-1 3,-1 4,1c1,0 2,1 2,2c0,1 0,3 -2,3c0,2 3,2 3,1c1,-1 2,-2 4,-2c2,0 3,0 4,1c1,1 5,0 3,-1c-2,1 -3,-1 -1,-2c2,-1 3,-4 6,-4c2,0 5,-1 7,0c1,2 3,-1 3,1c1,2 1,2 2,1c2,0 0,-4 1,-4c2,0 3,-1 4,-1c1,-1 3,0 3,-1c1,-2 3,-2 3,-1c0,2 -1,4 -1,5c2,1 0,2 1,4c2,0 2,2 1,3c0,3 0,2 1,1c2,0 2,-2 3,-3c1,0 4,1 2,1c-1,2 0,4 2,5c2,0 3,1 3,3c2,1 1,-2 1,-3c0,-1 0,-2 0,-4c-1,-1 -1,-4 0,-2c0,1 1,3 2,1c0,-1 -2,-3 0,-4c1,0 0,-3 2,-3c1,2 1,0 2,-2c1,1 1,2 2,3c1,1 3,-1 5,0c1,0 4,1 4,3c2,0 3,2 5,1c1,0 3,-1 3,0c-1,1 -1,3 1,3c1,2 -3,0 0,0 z" id="Dep_29" style="fill:#de3f00;stroke:#aaaaaa"/>
  </g>
  <g id="CotesdArmor">
     <path d="m 244,512c1,0 2,-2 3,0c0,2 3,2 4,0c1,-1 -1,-2 -1,-4c0,-1 0,-3 1,-4c1,-1 3,-1 4,0c3,-1 0,-1 0,-2c0,-2 -1,-3 -2,-4c-2,0 -2,-1 -2,-3c1,-1 1,-4 3,-3c2,1 4,-1 3,-2c-1,-1 0,-3 1,-3c2,1 2,-3 3,-1c1,1 2,0 3,1c0,-2 2,-2 2,0c1,1 2,3 4,2c2,0 -1,2 -1,3c1,1 3,0 5,0c2,0 1,-3 3,-3c1,0 3,0 4,-1c1,-1 3,-1 5,0c1,1 2,-1 3,-1c1,2 2,-1 3,-2c1,-1 2,-3 4,-2c1,1 -2,3 0,4c1,2 0,4 -1,5c0,2 -2,3 -1,4c0,-1 1,-3 2,-3c2,-1 2,-4 3,-5c2,0 2,-1 4,-2c1,-1 2,0 3,-1c0,-1 2,-1 3,-2c2,-1 2,1 2,2c0,1 1,3 0,4c-2,1 1,2 0,3c0,1 -2,3 -2,4c0,3 -4,3 -3,6c-1,1 -1,3 0,1c1,-2 3,-2 3,-3c1,-2 1,-4 2,-6c1,-1 1,-3 3,-2c1,2 3,0 4,0c2,1 0,2 1,3c1,1 -2,1 -2,3c-2,0 -3,1 -1,1c1,0 1,0 1,0c0,1 -1,1 0,2c1,2 4,1 6,3c1,1 3,-2 3,-1c-1,1 2,1 1,3c-1,1 1,2 -1,3c-1,2 2,2 2,3c0,1 1,2 2,3c2,0 1,2 2,4c1,2 4,1 5,3c0,2 3,2 2,4c0,2 0,4 1,6c-1,1 -2,3 0,3c1,1 2,2 3,2c2,1 1,3 3,4c1,0 3,1 4,2c0,1 0,2 -1,3c-2,1 1,0 1,2c0,2 2,1 2,3c1,2 2,2 2,0c0,-2 -1,-4 2,-5c1,1 2,3 3,2c2,-1 3,-3 4,-3c2,-1 2,-3 4,-4c1,-2 2,-3 3,-4c2,-1 3,1 4,-1c2,-1 4,-2 6,-3c1,-1 2,-3 0,-3c-2,0 -1,-2 1,-2c2,0 4,-1 6,0c0,1 0,4 1,2c1,-1 3,-1 4,-2c1,-1 2,-1 3,-2c1,0 3,0 3,-2c0,-2 2,-3 2,-1c-1,2 1,3 3,3c0,1 -2,2 -2,3c0,2 -3,3 -4,5c1,1 1,3 3,1c1,-2 3,-2 4,-3c1,-1 3,-3 3,-1c-1,1 1,2 0,4c-1,1 1,2 2,2c0,2 0,3 1,4c0,2 1,3 2,1c1,-1 0,-3 1,-5c2,1 -1,5 1,6c2,0 4,-2 2,-2c-1,-2 1,-3 2,-5c1,0 1,2 3,2c-1,1 0,3 0,4 c2,3 5,4 8,5c0,1 0,5 2,2c1,-2 3,-2 4,-2l0,0 c0,1 1,2 2,4c1,0 1,2 0,3c-1,2 1,4 1,2c1,-2 3,-1 3,-2c1,-1 0,-2 -1,-2l0,0 c2,-1 4,-2 4,0c2,4 -1,7 0,11c-3,0 0,4 -3,5c-4,2 1,8 -1,11c-3,3 2,6 0,8c-5,-2 -1,3 -3,6c0,3 -2,2 -4,2c-2,3 -4,3 -6,1c-4,-4 -5,2 -8,3c1,5 -4,0 -6,1c-6,1 -3,7 -6,9c-2,-2 -3,0 -2,2c1,4 -4,6 -4,8c0,1 -6,-1 -5,3 c-3,-2 -4,1 -7,1c-2,3 -4,0 -4,-3c-1,-2 -2,-6 -5,-7c-4,1 -7,3 -11,2c-4,0 0,3 0,5c-1,4 -6,5 -5,9c-3,2 -6,4 -8,6c-4,2 -7,0 -6,-4c1,-3 3,-7 2,-11c-2,-4 -5,2 -7,2c-4,-4 -6,4 -8,3c0,-4 -1,-9 -5,-10c-3,2 -6,-1 -8,-4c-3,0 -6,-3 -9,-1c-5,3 -5,-5 -6,-6c-4,-2 -9,-3 -13,-1c0,3 -1,7 -5,6c-3,-2 -5,0 -6,3c-2,-2 -4,-1 -7,-1c-1,-1 -3,-3 -5,-2c0,-4 -4,-3 -6,-2c-3,2 -10,3 -6,-2c1,-3 -3,-2 -5,-2c-3,-3 -9,2 -11,-2 c0,-3 8,2 4,-3c-4,-2 -3,-8 1,-9c1,-2 2,-6 -2,-7c-1,-1 6,-5 1,-4c-3,0 0,-5 -1,-7c2,-4 -2,-5 -6,-7c2,-2 1,-7 5,-8c2,0 4,-2 1,-3c-5,-3 -4,-9 1,-11c2,-2 5,-4 1,-6c-1,-2 -6,-1 -3,-3c2,-6 -7,-3 -5,-8c-2,-3 -2,-7 -1,-10c1,-1 2,-2 3,-3 z" id="Dep_22" style="fill:#be6a00;fill-opacity:1;stroke:#aaaaaa"/>
  </g>
  <g id="Morbihan">
    <path d="m 395,625c2,2 4,5 4,8c-1,1 -2,6 1,3c3,-3 12,-1 7,3c-4,2 -9,-1 -11,3c-2,2 -1,5 -3,7c4,1 10,-1 13,3c2,1 6,0 6,4c3,2 4,6 5,10c-2,2 -6,4 -3,7c0,3 -1,6 3,4c1,-1 3,-5 3,-1c-1,3 3,6 -2,7c-2,2 -2,7 -6,6c-2,2 -3,4 1,3c4,1 6,6 1,5c-4,0 -6,3 -4,6c-2,3 4,5 0,8c1,2 2,3 2,5 c3,2 0,7 -1,9c0,3 -1,6 -1,9c0,3 -5,1 -6,3c1,3 -2,7 -5,4c2,-3 -2,-3 -4,-2c-2,3 -5,1 -5,-2c-1,1 -4,-1 -4,2c-2,2 -2,6 -4,7c-2,1 -4,0 -5,-1c-3,2 -6,1 -7,-2c-1,0 -3,2 -4,4c0,-1 0,-1 -1,0c-1,1 -3,0 -2,-2c0,-1 1,-3 0,-4c-1,-1 0,-4 2,-3c1,0 2,2 3,1c2,-1 3,0 5,0c1,-1 2,-1 4,0c2,0 1,-1 -1,-1c-1,-2 -2,0 -4,0c-2,-1 -4,-1 -5,-2c-1,-2 -3,-1 -4,-2c-2,-3 -5,-2 -7,0c-2,0 -5,-2 -7,0c-1,2 -4,0 -1,0c1,0 0,-2 2,-2c2,-1 3,-2 3,-3c-1,0 -2,1 -4,1c0,-1 -4,0 -3,0c2,0 2,3 0,3c-1,0 -3,-1 -4,-2c1,2 0,4 -1,5c-1,1 -3,-1 -4,-1c-1,-1 -3,0 -5,0c-1,0 -4,0 -5,1c-1,2 -2,0 -4,0c-1,-1 -3,-1 -3,-3c0,-3 -2,-5 -4,-6c-2,0 -1,-1 -2,-1c-2,0 -2,-3 0,-3c1,0 2,0 3,0c1,1 3,1 3,3c0,2 1,-2 3,0c1,1 2,1 2,-2c1,-1 1,2 2,3c0,-2 2,-2 2,0c1,0 2,1 4,0c2,2 1,-1 3,-1c-1,-2 0,-3 1,-3c0,-3 1,-1 2,-3c1,-1 2,-1 2,-3c1,-1 0,-2 -1,-4c1,-1 -1,-3 -2,-1c2,1 2,2 2,4c-1,-1 -4,-1 -2,1c2,1 -1,2 -1,2c1,-2 -2,-2 -3,-2c-1,-2 -2,-3 -4,-4c1,-1 3,1 4,1c2,1 1,0 0,-1c-1,-2 -1,-3 -2,-2c-1,1 -3,-2 -3,0c2,1 1,2 -1,2c-2,-1 -3,1 -5,0c-1,-1 -2,-1 -2,1c-1,1 0,3 -2,2c-3,-2 -2,1 -2,2c-2,1 -3,-1 -4,-1c-1,2 0,-1 0,-2c-2,0 -2,0 -3,1c0,-1 -1,-3 0,-5c3,-1 -1,0 -1,-2c-1,-1 -1,-2 -2,-3c-1,-1 -1,2 0,2c0,2 2,2 1,4c0,1 -1,2 -1,4c0,2 2,2 2,4c1,1 2,3 1,3c-2,0 -2,-3 -3,-1c-2,1 0,-2 -1,-3c-1,0 -2,-3 -3,-2c1,1 2,4 0,3c-2,-1 -1,-4 -2,-6c-2,0 -1,3 -1,4c1,2 -1,1 -2,1c-1,-1 -2,1 -4,0c-1,0 -3,1 -4,0c1,-1 3,-2 0,-3c-1,0 -2,-3 -3,-1c0,2 1,3 1,4c-1,3 -2,6 -2,9c1,1 2,2 1,4c1,1 1,2 3,3c0,1 2,3 -1,2c-1,1 -2,-2 -3,-1c-2,1 -1,-2 -1,-3c0,-2 -1,-4 -1,-6c1,-1 2,-2 2,-3c1,-4 1,-7 -1,-10c0,-2 -1,-3 -2,-3c-1,-1 -4,-3 -4,-4c1,-2 1,-3 0,-5c0,-1 2,-2 3,-3c2,0 3,1 4,-1c1,0 2,-2 4,-1c1,0 -1,-2 0,-3c1,-2 0,-4 -1,-2c-2,1 -1,-2 -1,-3c1,-2 -1,-2 -1,0c-1,1 -2,-1 -3,-1c-2,-2 -3,1 -1,1c2,0 1,3 2,4c1,2 -1,2 -3,2c-1,0 0,3 -2,2c-2,-1 1,1 0,2c0,1 -2,1 -2,3c1,1 0,3 -2,2c-1,-2 -2,-4 -4,-5c-2,-1 -4,-2 -6,-3c-1,0 -3,-1 -4,0c-2,-1 2,-1 3,-1c1,-1 2,0 3,1c1,2 3,0 1,-1c-1,-1 -2,-2 -4,-2c-1,-1 -3,1 -3,0c0,-1 2,-2 1,-3c0,-2 3,-1 3,-2c2,-1 3,-3 3,-5c0,-1 3,-2 2,-2c-1,0 -2,2 -4,2c-1,0 0,3 -2,2c-2,1 -3,2 -3,3c-2,1 -4,-2 -5,0c1,0 3,0 3,2c1,2 -2,4 -4,3c-1,0 -3,-1 -5,0c-1,1 -2,-1 -3,-2c-1,0 -1,-2 -2,-3c-1,-2 -1,-5 -3,-6c0,-1 -1,-2 -1,-2c1,-2 2,-4 1,-5 c1,-2 2,-4 1,-5c-2,-3 -3,-8 1,-9c0,5 5,5 8,2c0,-3 3,-5 6,-4c2,-2 -2,-7 2,-9c1,-2 1,-12 -4,-8c-2,0 -4,2 -5,2c-1,-3 -2,-5 -5,-6c-3,-4 -7,-2 -10,-2c-3,2 -5,-1 -5,-4c-2,-3 -1,-7 -4,-10c-5,0 2,-7 -3,-7c-4,1 0,-4 0,-6c2,-5 7,-2 11,-5c2,-2 6,-2 9,-3l0,0c2,4 8,-1 11,2c2,0 6,-1 5,2c-4,5 3,4 6,2c2,-1 6,-2 6,2c2,-1 4,1 5,2c3,0 5,-1 7,1c1,-3 3,-5 6,-3c4,1 5,-3 5,-6c4,-2 9,-1 13,1c1,1 1,9 6,6c3,-2 6,1 9,1c2,3 5,6 8,4c4,1 5,6 5,10c2,1 4,-7 8,-3c2,0 5,-6 7,-2c1,4 -1,8 -2,11c-1,4 2,6 6,4c2,-2 5,-4 8,-6c-1,-4 4,-5 5,-9c0,-2 -4,-5 0,-5c4,1 7,-1 11,-2c3,1 4,5 5,7c0,3 2,6 4,3c3,0 4,-3 7,-1z" id="Dep_56" style="fill:#be0000;stroke:#aaaaaa"/>
  </g>
  <defs>
    <path id="coteCotedArmor" d="m 244,512c1,0 2,-2 3,0c0,2 3,2 4,0c1,-1 -1,-2 -1,-4c0,-1 0,-3 1,-4c1,-1 3,-1 4,0c3,-1 0,-1 0,-2c0,-2 -1,-3 -2,-4c-2,0 -2,-1 -2,-3c1,-1 1,-4 3,-3c2,1 4,-1 3,-2c-1,-1 0,-3 1,-3c2,1 2,-3 3,-1c1,1 2,0 3,1c0,-2 2,-2 2,0c1,1 2,3 4,2c2,0 -1,2 -1,3c1,1 3,0 5,0c2,0 1,-3 3,-3c1,0 3,0 4,-1c1,-1 3,-1 5,0c1,1 2,-1 3,-1c1,2 2,-1 3,-2c1,-1 2,-3 4,-2c1,1 -2,3 0,4c1,2 0,4 -1,5c0,2 -2,3 -1,4c0,-1 1,-3 2,-3c2,-1 2,-4 3,-5c2,0 2,-1 4,-2c1,-1 2,0 3,-1c0,-1 2,-1 3,-2c2,-1 2,1 2,2c0,1 1,3 0,4c-2,1 1,2 0,3c0,1 -2,3 -2,4c0,3 -4,3 -3,6c-1,1 -1,3 0,1c1,-2 3,-2 3,-3c1,-2 1,-4 2,-6c1,-1 1,-3 3,-2c1,2 3,0 4,0c2,1 0,2 1,3c1,1 -2,1 -2,3c-2,0 -3,1 -1,1c1,0 1,0 1,0c0,1 -1,1 0,2c1,2 4,1 6,3c1,1 3,-2 3,-1c-1,1 2,1 1,3c-1,1 1,2 -1,3c-1,2 2,2 2,3c0,1 1,2 2,3c2,0 1,2 2,4c1,2 4,1 5,3c0,2 3,2 2,4c0,2 0,4 1,6c-1,1 -2,3 0,3c1,1 2,2 3,2c2,1 1,3 3,4c1,0 3,1 4,2c0,1 0,2 -1,3c-2,1 1,0 1,2c0,2 2,1 2,3c1,2 2,2 2,0c0,-2 -1,-4 2,-5c1,1 2,3 3,2c2,-1 3,-3 4,-3c2,-1 2,-3 4,-4c1,-2 2,-3 3,-4c2,-1 3,1 4,-1c2,-1 4,-2 6,-3c1,-1 2,-3 0,-3c-2,0 -1,-2 1,-2c2,0 4,-1 6,0c0,1 0,4 1,2c1,-1 3,-1 4,-2c1,-1 2,-1 3,-2c1,0 3,0 3,-2c0,-2 2,-3 2,-1c-1,2 1,3 3,3c0,1 -2,2 -2,3c0,2 -3,3 -4,5c1,1 1,3 3,1c1,-2 3,-2 4,-3c1,-1 3,-3 3,-1c-1,1 1,2 0,4c-1,1 1,2 2,2c0,2 0,3 1,4c0,2 1,3 2,1c1,-1 0,-3 1,-5c2,1 -1,5 1,6c2,0 4,-2 2,-2c-1,-2 1,-3 2,-5c1,0 1,2 3,2c-1,1 0,3 0,4"/> 
    <path id="CotedArmorIlleEtVilaine" d="m 0,0c2,-1 4,-2 4,0c2,4 -1,7 0,11c-3,0 0,4 -3,5c-4,2 1,8 -1,11c-3,3 2,6 0,8c-5,-2 -1,3 -3,6c0,3 -2,2 -4,2c-2,3 -4,3 -6,1c-4,-4 -5,2 -8,3c1,5 -4,0 -6,1c-6,1 -3,7 -6,9c-2,-2 -3,0 -2,2c1,4 -4,6 -4,8c0,1 -6,-1 -5,3"/> 
    <path id="CotedArmorFinistere" d="m 0,0c0,-3 8,2 4,-3c-4,-2 -3,-8 1,-9c1,-2 2,-6 -2,-7c-1,-1 6,-5 1,-4c-3,0 0,-5 -1,-7c2,-4 -2,-5 -6,-7c2,-2 1,-7 5,-8c2,0 4,-2 1,-3c-5,-3 -4,-9 1,-11c2,-2 5,-4 1,-6c-1,-2 -6,-1 -3,-3c2,-6 -7,-3 -5,-8c-2,-3 -2,-7 -1,-10c1,-1 2,-2 3,-3"/> 
    <path id="FinistereMorbihan" d="m 0,0c-3,1 -7,1 -9,3c-4,3 -9,0 -11,5c0,2 -4,7 0,6c5,0 -2,7 3,7c3,3 2,7 4,10c0,3 2,6 5,4c3,0 7,-2 10,2c3,1 4,3 5,6c1,0 3,-2 5,-2c5,-4 5,6 4,8c-4,2 0,7 -2,9c-3,-1 -6,1 -6,4c-3,3 -8,3 -8,-2c-4,1 -3,6 -1,9c1,1 0,3 -1,5"/> 
    <path id="coteFinistere" d="m 0,0c-2,1 -4,-1 -5,-1c-3,-1 -6,0 -8,-2c0,-2 -2,-1 -3,-1c-2,0 -3,-2 -4,-3c-2,0 0,-3 -2,-2c-1,0 -2,1 -3,2c-3,1 -6,1 -8,-1c-2,-1 -3,1 -4,1c0,-2 0,-3 -1,-4c-1,-2 -3,-3 -4,-5c0,-1 2,-2 -1,-2c-2,-1 1,-2 0,-3c0,-1 -3,-1 -3,-2c0,-2 -2,-2 -2,-4c-1,1 -2,-1 -3,-1c-2,1 0,1 -1,3c-1,1 1,3 0,4c-2,1 -4,2 -6,2c1,-1 4,0 3,-2c-1,0 -2,0 -3,0c-1,1 -2,2 -2,0c0,-2 -2,-3 -3,-2c-2,1 -3,-1 -3,-2c-1,-1 0,-2 -2,-2c0,-2 -2,-3 -2,-5c1,-2 -1,-1 -1,1c0,2 1,3 2,4c0,2 2,3 1,4c-1,0 -2,0 -3,1c-2,1 -2,-1 -3,-1c0,-1 0,-4 -2,-3c0,1 -2,2 -1,4c0,1 3,1 1,2c-1,2 3,0 3,2c-1,2 -3,4 -4,5c-2,0 -3,1 -4,1c-2,0 -3,0 -5,0c-1,0 -3,-1 -4,-1c-1,0 -2,-1 -4,-1c-1,0 -2,-1 -4,0c-2,0 -1,-2 -1,-4c-1,-1 1,-2 3,-2c1,-2 0,-5 0,-8c-1,-2 -1,-4 -2,-6c-1,-2 -2,-5 -4,-7c-1,-3 -4,-6 -6,-8c-2,-1 -3,-4 -5,-4c-2,0 -1,-2 -2,-2c-2,0 -3,3 -5,2c-2,0 -2,-1 -3,-2c-1,-1 -3,-1 -4,-3c-1,0 -2,1 -3,0c-2,-1 -4,0 -5,-2c-1,0 -4,-1 -2,-1c2,0 1,-2 1,-4c0,-2 3,0 4,0c1,1 2,-2 3,-1c2,1 4,1 6,0c1,0 3,-1 5,0c1,1 2,0 3,-1c3,-1 6,1 8,-1c2,-1 4,0 6,-1c3,0 5,0 7,-1c3,0 3,3 5,3c2,0 3,2 4,0c1,-1 2,-3 1,-4c1,-2 2,-4 1,-6c-1,0 -2,-2 -2,-3c1,-3 -1,-6 -3,-7c-2,0 -4,2 -5,-1c0,-1 -1,-2 -3,-1c-1,-1 -1,-2 -3,-2c0,-2 -1,-2 -3,-2c-1,-1 -4,-1 -5,1c0,1 -2,3 -2,4c-1,2 -3,3 -4,5c-1,2 -3,0 -2,-1c2,-2 1,-5 0,-7c0,-1 -1,-3 1,-3c2,-1 2,-4 0,-4c-2,0 -3,1 -5,0c0,-1 -1,-3 -3,-1c1,-1 1,-3 1,-4c1,-1 2,-1 3,1c2,1 3,-2 2,-4c0,-1 0,-4 2,-4c1,-1 2,-2 4,-2c1,1 -1,2 -1,3c0,2 -3,3 -1,4c0,1 2,3 3,1c0,-2 2,0 2,1c1,1 3,0 4,0c2,-1 4,0 6,0c0,1 1,3 2,3c2,0 4,0 6,-1c2,0 4,-2 6,-1c1,0 4,0 4,1c-2,0 -4,1 -1,2c2,1 3,-1 5,-2c1,1 3,1 5,0c2,0 -2,0 -2,0c-2,0 -4,-1 -3,-2c1,-2 -1,-1 -2,0c-1,0 -1,-1 -3,-2c1,-3 -1,0 -2,0c-1,-2 -4,0 -3,-2c1,-1 2,-1 2,-2c1,0 4,0 3,-2c0,-1 3,-1 1,-1c-2,-1 -3,0 -4,1c-1,1 -3,0 -1,-1c-1,-1 -2,2 -4,1c-1,-1 -2,1 -3,2c-1,1 -2,1 -4,1c-1,-1 3,-3 0,-3c-2,1 -3,1 -5,2c-1,-1 2,-2 1,-3c0,-2 2,-4 3,-4c2,-1 2,-3 4,-3c3,-1 7,-1 10,-3c1,-1 3,-2 1,-2c-3,1 -6,2 -9,3c-2,1 -4,0 -6,0c-2,1 -5,1 -7,2c-3,1 -5,3 -8,3c-4,1 -6,3 -9,2c-1,-1 -2,-1 -3,-2c-2,0 -4,-2 -5,0c-1,1 0,3 -2,3c-2,0 -4,-1 -6,0c-2,0 -2,-3 -3,-4c1,-1 -1,-4 1,-3c2,0 3,-3 1,-4c-2,-1 1,-3 -1,-3c-1,-1 -1,-3 0,-4c1,-1 1,-4 2,-6c1,-1 2,1 3,-1c0,-1 -2,0 -2,-2c-1,-2 -2,-5 0,-6c2,-1 1,-3 3,-3c1,-2 2,-3 3,-4c1,0 3,2 3,0c-1,-2 2,-2 3,-1c1,-1 2,-2 3,-1c2,0 3,-1 4,0c1,1 3,2 3,3c2,1 1,0 1,-2c-1,-2 -4,0 -2,-2c0,-2 0,-4 2,-4c0,1 0,2 2,2c2,1 3,1 5,0c-1,0 -4,-1 -2,-2c1,-1 -3,-1 -2,-3c2,0 3,1 3,-1c1,0 3,0 4,0c0,3 3,2 5,2c1,-1 2,-3 3,-1c1,0 2,-1 4,0c1,-1 -2,-2 -2,-2c0,-2 2,-1 3,-1c3,-1 4,-2 6,-3c1,-1 3,-1 4,1c1,0 2,1 2,2c0,1 0,3 -2,3c0,2 3,2 3,1c1,-1 2,-2 4,-2c2,0 3,0 4,1c1,1 5,0 3,-1c-2,1 -3,-1 -1,-2c2,-1 3,-4 6,-4c2,0 5,-1 7,0c1,2 3,-1 3,1c1,2 1,2 2,1c2,0 0,-4 1,-4c2,0 3,-1 4,-1c1,-1 3,0 3,-1c1,-2 3,-2 3,-1c0,2 -1,4 -1,5c2,1 0,2 1,4c2,0 2,2 1,3c0,3 0,2 1,1c2,0 2,-2 3,-3c1,0 4,1 2,1c-1,2 0,4 2,5c2,0 3,1 3,3c2,1 1,-2 1,-3c0,-1 0,-2 0,-4c-1,-1 -1,-4 0,-2c0,1 1,3 2,1c0,-1 -2,-3 0,-4c1,0 0,-3 2,-3c1,2 1,0 2,-2c1,1 1,2 2,3c1,1 3,-1 5,0c1,0 4,1 4,3c2,0 3,2 5,1c1,0 3,-1 3,0c-1,1 -1,3 1,3c1,2 -3,0 0,0"/> 
    <path id="IlleEtVilaineMorbihan" d="m 396,622c2,2 4,5 4,8c-1,1 -2,6 1,3c3,-3 12,-1 7,3c-4,2 -9,-1 -11,3c-2,2 -1,5 -3,7c4,1 10,-1 13,3c2,1 6,0 6,4c3,2 4,6 5,10c-2,2 -6,4 -3,7c0,3 -1,6 3,4c1,-1 3,-5 3,-1c-1,3 3,6 -2,7c-2,2 -2,7 -6,6c-2,2 -3,4 1,3c4,1 6,6 1,5c-4,0 -6,3 -4,6c-2,3 4,5 0,8c1,2 2,3 2,5"/> 
    <path id="coteMorbihan" d="m 0,-2c3,2 0,7 -1,9c0,3 -1,6 -1,9c0,3 -5,1 -6,3c1,3 -2,7 -5,4c2,-3 -2,-3 -4,-2c-2,3 -5,1 -5,-2c-1,1 -4,-1 -4,2c-2,2 -2,6 -4,7c-2,1 -4,0 -5,-1c-3,2 -6,1 -7,-2c-1,0 -3,2 -4,4c0,-1 0,-1 -1,0c-1,1 -3,0 -2,-2c0,-1 1,-3 0,-4c-1,-1 0,-4 2,-3c1,0 2,2 3,1c2,-1 3,0 5,0c1,-1 2,-1 4,0c2,0 1,-1 -1,-1c-1,-2 -2,0 -4,0c-2,-1 -4,-1 -5,-2c-1,-2 -3,-1 -4,-2c-2,-3 -5,-2 -7,0c-2,0 -5,-2 -7,0c-1,2 -4,0 -1,0c1,0 0,-2 2,-2c2,-1 3,-2 3,-3c-1,0 -2,1 -4,1c0,-1 -4,0 -3,0c2,0 2,3 0,3c-1,0 -3,-1 -4,-2c1,2 0,4 -1,5c-1,1 -3,-1 -4,-1c-1,-1 -3,0 -5,0c-1,0 -4,0 -5,1c-1,2 -2,0 -4,0c-1,-1 -3,-1 -3,-3c0,-3 -2,-5 -4,-6c-2,0 -1,-1 -2,-1c-2,0 -2,-3 0,-3c1,0 2,0 3,0c1,1 3,1 3,3c0,2 1,-2 3,0c1,1 2,1 2,-2c1,-1 1,2 2,3c0,-2 2,-2 2,0c1,0 2,1 4,0c2,2 1,-1 3,-1c-1,-2 0,-3 1,-3c0,-3 1,-1 2,-3c1,-1 2,-1 2,-3c1,-1 0,-2 -1,-4c1,-1 -1,-3 -2,-1c2,1 2,2 2,4c-1,-1 -4,-1 -2,1c2,1 -1,2 -1,2c1,-2 -2,-2 -3,-2c-1,-2 -2,-3 -4,-4c1,-1 3,1 4,1c2,1 1,0 0,-1c-1,-2 -1,-3 -2,-2c-1,1 -3,-2 -3,0c2,1 1,2 -1,2c-2,-1 -3,1 -5,0c-1,-1 -2,-1 -2,1c-1,1 0,3 -2,2c-3,-2 -2,1 -2,2c-2,1 -3,-1 -4,-1c-1,2 0,-1 0,-2c-2,0 -2,0 -3,1c0,-1 -1,-3 0,-5c3,-1 -1,0 -1,-2c-1,-1 -1,-2 -2,-3c-1,-1 -1,2 0,2c0,2 2,2 1,4c0,1 -1,2 -1,4c0,2 2,2 2,4c1,1 2,3 1,3c-2,0 -2,-3 -3,-1c-2,1 0,-2 -1,-3c-1,0 -2,-3 -3,-2c1,1 2,4 0,3c-2,-1 -1,-4 -2,-6c-2,0 -1,3 -1,4c1,2 -1,1 -2,1c-1,-1 -2,1 -4,0c-1,0 -3,1 -4,0c1,-1 3,-2 0,-3c-1,0 -2,-3 -3,-1c0,2 1,3 1,4c-1,3 -2,6 -2,9c1,1 2,2 1,4c1,1 1,2 3,3c0,1 2,3 -1,2c-1,1 -2,-2 -3,-1c-2,1 -1,-2 -1,-3c0,-2 -1,-4 -1,-6c1,-1 2,-2 2,-3c1,-4 1,-7 -1,-10c0,-2 -1,-3 -2,-3c-1,-1 -4,-3 -4,-4c1,-2 1,-3 0,-5c0,-1 2,-2 3,-3c2,0 3,1 4,-1c1,0 2,-2 4,-1c1,0 -1,-2 0,-3c1,-2 0,-4 -1,-2c-2,1 -1,-2 -1,-3c1,-2 -1,-2 -1,0c-1,1 -2,-1 -3,-1c-2,-2 -3,1 -1,1c2,0 1,3 2,4c1,2 -1,2 -3,2c-1,0 0,3 -2,2c-2,-1 1,1 0,2c0,1 -2,1 -2,3c1,1 0,3 -2,2c-1,-2 -2,-4 -4,-5c-2,-1 -4,-2 -6,-3c-1,0 -3,-1 -4,0c-2,-1 2,-1 3,-1c1,-1 2,0 3,1c1,2 3,0 1,-1c-1,-1 -2,-2 -4,-2c-1,-1 -3,1 -3,0c0,-1 2,-2 1,-3c0,-2 3,-1 3,-2c2,-1 3,-3 3,-5c0,-1 3,-2 2,-2c-1,0 -2,2 -4,2c-1,0 0,3 -2,2c-2,1 -3,2 -3,3c-2,1 -4,-2 -5,0c1,0 3,0 3,2c1,2 -2,4 -4,3c-1,0 -3,-1 -5,0c-1,1 -2,-1 -3,-2c-1,0 -1,-2 -2,-3c-1,-2 -1,-5 -3,-6c0,-1 -1,-2 -1,-2c1,-2 2,-4 1,-5"/> 
    <path id="CotedArmorMorbihan" d="m 0,0c-3,-2 -4,1 -7,1c-2,3 -4,0 -4,-3c-1,-2 -2,-6 -5,-7c-4,1 -7,3 -11,2c-4,0 0,3 0,5c-1,4 -6,5 -5,9c-3,2 -6,4 -8,6c-4,2 -7,0 -6,-4c1,-3 3,-7 2,-11c-2,-4 -5,2 -7,2c-4,-4 -6,4 -8,3c0,-4 -1,-9 -5,-10c-3,2 -6,-1 -8,-4c-3,0 -6,-3 -9,-1c-5,3 -5,-5 -6,-6c-4,-2 -9,-3 -13,-1c0,3 -1,7 -5,6c-3,-2 -5,0 -6,3c-2,-2 -4,-1 -7,-1c-1,-1 -3,-3 -5,-2c0,-4 -4,-3 -6,-2c-3,2 -10,3 -6,-2c1,-3 -3,-2 -5,-2c-3,-3 -9,2 -11,-2"/> 
    <path d="m 0,0c2,3 5,4 8,5c0,1 0,5 2,2c1,-2 3,-2 4,-2l0,0"/> 
    <path d="m 0,0c0,1 1,2 2,4c1,0 1,2 0,3c-1,2 1,4 1,2c1,-2 3,-1 3,-2c1,-1 0,-2 -1,-2l0,0"/> 
    <path d="m 0,0c0,1 1,2 2,4c1,0 1,2 0,3c-1,2 1,4 1,2c1,-2 3,-1 3,-2c1,-1 0,-2 -1,-2"/>        
    <path d="m 0,0c2,-1 4,-2 4,0c2,4 -1,7 0,11c-3,0 0,4 -3,5c-4,2 1,8 -1,11c-3,3 2,6 0,8c-5,-2 -1,3 -3,6c0,3 -2,2 -4,2c-2,3 -4,3 -6,1c-4,-4 -5,2 -8,3c1,5 -4,0 -6,1c-6,1 -3,7 -6,9c-2,-2 -3,0 -2,2c1,4 -4,6 -4,8c0,1 -6,-1 -5,3l0,0"/> 
    <path d="m 0,0c-3,-2 -4,1 -7,1c-2,3 -4,0 -4,-3c-1,-2 -2,-6 -5,-7c-4,1 -7,3 -11,2c-4,0 0,3 0,5c-1,4 -6,5 -5,9c-3,2 -6,4 -8,6c-4,2 -7,0 -6,-4c1,-3 3,-7 2,-11c-2,-4 -5,2 -7,2c-4,-4 -6,4 -8,3c0,-4 -1,-9 -5,-10c-3,2 -6,-1 -8,-4c-3,0 -6,-3 -9,-1c-5,3 -5,-5 -6,-6c-4,-2 -9,-3 -13,-1c0,3 -1,7 -5,6c-3,-2 -5,0 -6,3c-2,-2 -4,-1 -7,-1c-1,-1 -3,-3 -5,-2c0,-4 -4,-3 -6,-2c-3,2 -10,3 -6,-2c1,-3 -3,-2 -5,-2c-3,-3 -9,2 -11,-2l0,0"/> 
    <path d="m 0,0c0,-3 8,2 4,-3c-4,-2 -3,-8 1,-9c1,-2 2,-6 -2,-7c-1,-1 6,-5 1,-4c-3,0 0,-5 -1,-7c2,-4 -2,-5 -6,-7c2,-2 1,-7 5,-8c2,0 4,-2 1,-3c-5,-3 -4,-9 1,-11c2,-2 5,-4 1,-6c-1,-2 -6,-1 -3,-3c2,-6 -7,-3 -5,-8c-2,-3 -2,-7 -1,-10c1,-1 2,-2 3,-3"/> 
  </defs>
</svg>