<?xml version="1.0" encoding="UTF-8" standalone="no"?>
<svg
   xmlns:svg="http://www.w3.org/2000/svg"
   xmlns="http://www.w3.org/2000/svg"
   xmlns:xlink="http://www.w3.org/1999/xlink"
   width="100%"
   height="100%"
   viewBox="0 450 500 500"
   style="display:inline"
   version="1.1"
   onload="superpath.expandPaths()">
   
  <script type="application/ecmascript" xlink:href="../Js/SuperPathExpander.js" />
  <g
     id="CoteBretonne">
    <path
       d="m412,716#d56_2|#d29_3|#d22_1|#d22_2|"
       style="fill:none;stroke:#0000FF;stroke-width:10" />
  </g>
  <g
     id="Finistere">
    <path
       d="m 244,512!d22_6|#d29_2|#d29_3|z"
       id="Dep_29"
       style="fill:#de3f00;stroke:#aaaaaa" />
  </g>
  <g
     id="CotesdArmor">
     <path
       d="m 244,512#d22_1|#d22_2|#d22_3|#d35_4|#d22_4|#d22_6|z"
       id="Dep_22"
       style="fill:#be6a00;fill-opacity:1;stroke:#aaaaaa" />
  </g>
  <g
     id="Morbihan">
    <path
       d="m 395,625#d56_1|#d56_2|!d29_2|!d22_5|z"
       id="Dep_56"
       style="fill:#be0000;stroke:#aaaaaa" />
  </g>
  <defs>
    <path
       id="coteCotedArmor"
       d="m 244,512(d22_1|c 1,0 2,-2 3,0 0,2 3,2 4,0 1,-1 -1,-2 -1,-4 0,-1 0,-3 1,-4 1,-1 3,-1 4,0 3,-1 0,-1 0,-2 0,-2 -1,-3 -2,-4 -2,0 -2,-1 -2,-3 1,-1 1,-4 3,-3 2,1 4,-1 3,-2 -1,-1 0,-3 1,-3 2,1 2,-3 3,-1 1,1 2,0 3,1 0,-2 2,-2 2,0 1,1 2,3 4,2 2,0 -1,2 -1,3 1,1 3,0 5,0 2,0 1,-3 3,-3 1,0 3,0 4,-1 1,-1 3,-1 5,0 1,1 2,-1 3,-1 1,2 2,-1 3,-2 1,-1 2,-3 4,-2 1,1 -2,3 0,4 1,2 0,4 -1,5 0,2 -2,3 -1,4 0,-1 1,-3 2,-3 2,-1 2,-4 3,-5 2,0 2,-1 4,-2 1,-1 2,0 3,-1 0,-1 2,-1 3,-2 2,-1 2,1 2,2 0,1 1,3 0,4 -2,1 1,2 0,3 0,1 -2,3 -2,4 0,3 -4,3 -3,6 -1,1 -1,3 0,1 1,-2 3,-2 3,-3 1,-2 1,-4 2,-6 1,-1 1,-3 3,-2 1,2 3,0 4,0 2,1 0,2 1,3 1,1 -2,1 -2,3 -2,0 -3,1 -1,1 1,0 1,0 1,0 0,1 -1,1 0,2 1,2 4,1 6,3 1,1 3,-2 3,-1 -1,1 2,1 1,3 -1,1 1,2 -1,3 -1,2 2,2 2,3 0,1 1,2 2,3 2,0 1,2 2,4 1,2 4,1 5,3 0,2 3,2 2,4 0,2 0,4 1,6 -1,1 -2,3 0,3 1,1 2,2 3,2 2,1 1,3 3,4 1,0 3,1 4,2 0,1 0,2 -1,3 -2,1 1,0 1,2 0,2 2,1 2,3 1,2 2,2 2,0 0,-2 -1,-4 2,-5 1,1 2,3 3,2 2,-1 3,-3 4,-3 2,-1 2,-3 4,-4 1,-2 2,-3 3,-4 2,-1 3,1 4,-1 2,-1 4,-2 6,-3 1,-1 2,-3 0,-3 -2,0 -1,-2 1,-2 2,0 4,-1 6,0 0,1 0,4 1,2 1,-1 3,-1 4,-2 1,-1 2,-1 3,-2 1,0 3,0 3,-2 0,-2 2,-3 2,-1 -1,2 1,3 3,3 0,1 -2,2 -2,3 0,2 -3,3 -4,5 1,1 1,3 3,1 1,-2 3,-2 4,-3 1,-1 3,-3 3,-1 -1,1 1,2 0,4 -1,1 1,2 2,2 0,2 0,3 1,4 0,2 1,3 2,1 1,-1 0,-3 1,-5 2,1 -1,5 1,6 2,0 4,-2 2,-2 -1,-2 1,-3 2,-5 1,0 1,2 3,2 -1,1 0,3 0,4)"/> 
    <path
       id="CotedArmorIlleEtVilaine"
       d="m 0,0(d35_4|c 2,-1 4,-2 4,0 2,4 -1,7 0,11 -3,0 0,4 -3,5 -4,2 1,8 -1,11 -3,3 2,6 0,8 -5,-2 -1,3 -3,6 0,3 -2,2 -4,2 -2,3 -4,3 -6,1 -4,-4 -5,2 -8,3 1,5 -4,0 -6,1 -6,1 -3,7 -6,9 -2,-2 -3,0 -2,2 1,4 -4,6 -4,8 0,1 -6,-1 -5,3)"/> 
    <path
       id="CotedArmorFinistere"
       d="m 0,0(d22_5|c 0,-3 8,2 4,-3 -4,-2 -3,-8 1,-9 1,-2 2,-6 -2,-7 -1,-1 6,-5 1,-4 -3,0 0,-5 -1,-7 2,-4 -2,-5 -6,-7 2,-2 1,-7 5,-8 2,0 4,-2 1,-3 -5,-3 -4,-9 1,-11 2,-2 5,-4 1,-6 -1,-2 -6,-1 -3,-3 2,-6 -7,-3 -5,-8 -2,-3 -2,-7 -1,-10 1,-1 2,-2 3,-3)"/> 
    <path
       id="FinistereMorbihan"
       d="m 0,0(d29_2|c -3,1 -7,1 -9,3 -4,3 -9,0 -11,5 0,2 -4,7 0,6 5,0 -2,7 3,7 3,3 2,7 4,10 0,3 2,6 5,4 3,0 7,-2 10,2 3,1 4,3 5,6 1,0 3,-2 5,-2 5,-4 5,6 4,8 -4,2 0,7 -2,9 -3,-1 -6,1 -6,4 -3,3 -8,3 -8,-2 -4,1 -3,6 -1,9 1,1 0,3 -1,5)" /> 
    <path
       id="coteFinistere"
       d="m 0,0(d29_3|c -2,1 -4,-1 -5,-1 -3,-1 -6,0 -8,-2 0,-2 -2,-1 -3,-1 -2,0 -3,-2 -4,-3 -2,0 0,-3 -2,-2 -1,0 -2,1 -3,2 -3,1 -6,1 -8,-1 -2,-1 -3,1 -4,1 0,-2 0,-3 -1,-4 -1,-2 -3,-3 -4,-5 0,-1 2,-2 -1,-2 -2,-1 1,-2 0,-3 0,-1 -3,-1 -3,-2 0,-2 -2,-2 -2,-4 -1,1 -2,-1 -3,-1 -2,1 0,1 -1,3 -1,1 1,3 0,4 -2,1 -4,2 -6,2 1,-1 4,0 3,-2 -1,0 -2,0 -3,0 -1,1 -2,2 -2,0 0,-2 -2,-3 -3,-2 -2,1 -3,-1 -3,-2 -1,-1 0,-2 -2,-2 0,-2 -2,-3 -2,-5 1,-2 -1,-1 -1,1 0,2 1,3 2,4 0,2 2,3 1,4 -1,0 -2,0 -3,1 -2,1 -2,-1 -3,-1 0,-1 0,-4 -2,-3 0,1 -2,2 -1,4 0,1 3,1 1,2 -1,2 3,0 3,2 -1,2 -3,4 -4,5 -2,0 -3,1 -4,1 -2,0 -3,0 -5,0 -1,0 -3,-1 -4,-1 -1,0 -2,-1 -4,-1 -1,0 -2,-1 -4,0 -2,0 -1,-2 -1,-4 -1,-1 1,-2 3,-2 1,-2 0,-5 0,-8 -1,-2 -1,-4 -2,-6 -1,-2 -2,-5 -4,-7 -1,-3 -4,-6 -6,-8 -2,-1 -3,-4 -5,-4 -2,0 -1,-2 -2,-2 -2,0 -3,3 -5,2 -2,0 -2,-1 -3,-2 -1,-1 -3,-1 -4,-3 -1,0 -2,1 -3,0 -2,-1 -4,0 -5,-2 -1,0 -4,-1 -2,-1 2,0 1,-2 1,-4 0,-2 3,0 4,0 1,1 2,-2 3,-1 2,1 4,1 6,0 1,0 3,-1 5,0 1,1 2,0 3,-1 3,-1 6,1 8,-1 2,-1 4,0 6,-1 3,0 5,0 7,-1 3,0 3,3 5,3 2,0 3,2 4,0 1,-1 2,-3 1,-4 1,-2 2,-4 1,-6 -1,0 -2,-2 -2,-3 1,-3 -1,-6 -3,-7 -2,0 -4,2 -5,-1 0,-1 -1,-2 -3,-1 -1,-1 -1,-2 -3,-2 0,-2 -1,-2 -3,-2 -1,-1 -4,-1 -5,1 0,1 -2,3 -2,4 -1,2 -3,3 -4,5 -1,2 -3,0 -2,-1 2,-2 1,-5 0,-7 0,-1 -1,-3 1,-3 2,-1 2,-4 0,-4 -2,0 -3,1 -5,0 0,-1 -1,-3 -3,-1 1,-1 1,-3 1,-4 1,-1 2,-1 3,1 2,1 3,-2 2,-4 0,-1 0,-4 2,-4 1,-1 2,-2 4,-2 1,1 -1,2 -1,3 0,2 -3,3 -1,4 0,1 2,3 3,1 0,-2 2,0 2,1 1,1 3,0 4,0 2,-1 4,0 6,0 0,1 1,3 2,3 2,0 4,0 6,-1 2,0 4,-2 6,-1 1,0 4,0 4,1 -2,0 -4,1 -1,2 2,1 3,-1 5,-2 1,1 3,1 5,0 2,0 -2,0 -2,0 -2,0 -4,-1 -3,-2 1,-2 -1,-1 -2,0 -1,0 -1,-1 -3,-2 1,-3 -1,0 -2,0 -1,-2 -4,0 -3,-2 1,-1 2,-1 2,-2 1,0 4,0 3,-2 0,-1 3,-1 1,-1 -2,-1 -3,0 -4,1 -1,1 -3,0 -1,-1 -1,-1 -2,2 -4,1 -1,-1 -2,1 -3,2 -1,1 -2,1 -4,1 -1,-1 3,-3 0,-3 -2,1 -3,1 -5,2 -1,-1 2,-2 1,-3 0,-2 2,-4 3,-4 2,-1 2,-3 4,-3 3,-1 7,-1 10,-3 1,-1 3,-2 1,-2 -3,1 -6,2 -9,3 -2,1 -4,0 -6,0 -2,1 -5,1 -7,2 -3,1 -5,3 -8,3 -4,1 -6,3 -9,2 -1,-1 -2,-1 -3,-2 -2,0 -4,-2 -5,0 -1,1 0,3 -2,3 -2,0 -4,-1 -6,0 -2,0 -2,-3 -3,-4 1,-1 -1,-4 1,-3 2,0 3,-3 1,-4 -2,-1 1,-3 -1,-3 -1,-1 -1,-3 0,-4 1,-1 1,-4 2,-6 1,-1 2,1 3,-1 0,-1 -2,0 -2,-2 -1,-2 -2,-5 0,-6 2,-1 1,-3 3,-3 1,-2 2,-3 3,-4 1,0 3,2 3,0 -1,-2 2,-2 3,-1 1,-1 2,-2 3,-1 2,0 3,-1 4,0 1,1 3,2 3,3 2,1 1,0 1,-2 -1,-2 -4,0 -2,-2 0,-2 0,-4 2,-4 0,1 0,2 2,2 2,1 3,1 5,0 -1,0 -4,-1 -2,-2 1,-1 -3,-1 -2,-3 2,0 3,1 3,-1 1,0 3,0 4,0 0,3 3,2 5,2 1,-1 2,-3 3,-1 1,0 2,-1 4,0 1,-1 -2,-2 -2,-2 0,-2 2,-1 3,-1 3,-1 4,-2 6,-3 1,-1 3,-1 4,1 1,0 2,1 2,2 0,1 0,3 -2,3 0,2 3,2 3,1 1,-1 2,-2 4,-2 2,0 3,0 4,1 1,1 5,0 3,-1 -2,1 -3,-1 -1,-2 2,-1 3,-4 6,-4 2,0 5,-1 7,0 1,2 3,-1 3,1 1,2 1,2 2,1 2,0 0,-4 1,-4 2,0 3,-1 4,-1 1,-1 3,0 3,-1 1,-2 3,-2 3,-1 0,2 -1,4 -1,5 2,1 0,2 1,4 2,0 2,2 1,3 0,3 0,2 1,1 2,0 2,-2 3,-3 1,0 4,1 2,1 -1,2 0,4 2,5 2,0 3,1 3,3 2,1 1,-2 1,-3 0,-1 0,-2 0,-4 -1,-1 -1,-4 0,-2 0,1 1,3 2,1 0,-1 -2,-3 0,-4 1,0 0,-3 2,-3 1,2 1,0 2,-2 1,1 1,2 2,3 1,1 3,-1 5,0 1,0 4,1 4,3 2,0 3,2 5,1 1,0 3,-1 3,0 -1,1 -1,3 1,3 M 83,547 c 1,2 -3,0 0,0)" /> 
    <path
       id="IlleEtVilaineMorbihan"
       d="m 396,622(d56_1|c 2,2 4,5 4,8 -1,1 -2,6 1,3 3,-3 12,-1 7,3 -4,2 -9,-1 -11,3 -2,2 -1,5 -3,7 4,1 10,-1 13,3 2,1 6,0 6,4 3,2 4,6 5,10 -2,2 -6,4 -3,7 0,3 -1,6 3,4 1,-1 3,-5 3,-1 -1,3 3,6 -2,7 -2,2 -2,7 -6,6 -2,2 -3,4 1,3 4,1 6,6 1,5 -4,0 -6,3 -4,6 -2,3 4,5 0,8 1,2 2,3 2,5)"/> 
    <path
       id="coteMorbihan"
       d="m 0,-2(d56_2|c 3,2 0,7 -1,9 0,3 -1,6 -1,9 0,3 -5,1 -6,3 1,3 -2,7 -5,4 2,-3 -2,-3 -4,-2 -2,3 -5,1 -5,-2 -1,1 -4,-1 -4,2 -2,2 -2,6 -4,7 -2,1 -4,0 -5,-1 -3,2 -6,1 -7,-2 -1,0 -3,2 -4,4 0,-1 0,-1 -1,0 -1,1 -3,0 -2,-2 0,-1 1,-3 0,-4 -1,-1 0,-4 2,-3 1,0 2,2 3,1 2,-1 3,0 5,0 1,-1 2,-1 4,0 2,0 1,-1 -1,-1 -1,-2 -2,0 -4,0 -2,-1 -4,-1 -5,-2 -1,-2 -3,-1 -4,-2 -2,-3 -5,-2 -7,0 -2,0 -5,-2 -7,0 -1,2 -4,0 -1,0 1,0 0,-2 2,-2 2,-1 3,-2 3,-3 -1,0 -2,1 -4,1 0,-1 -4,0 -3,0 2,0 2,3 0,3 -1,0 -3,-1 -4,-2 1,2 0,4 -1,5 -1,1 -3,-1 -4,-1 -1,-1 -3,0 -5,0 -1,0 -4,0 -5,1 -1,2 -2,0 -4,0 -1,-1 -3,-1 -3,-3 0,-3 -2,-5 -4,-6 -2,0 -1,-1 -2,-1 -2,0 -2,-3 0,-3 1,0 2,0 3,0 1,1 3,1 3,3 0,2 1,-2 3,0 1,1 2,1 2,-2 1,-1 1,2 2,3 0,-2 2,-2 2,0 1,0 2,1 4,0 2,2 1,-1 3,-1 -1,-2 0,-3 1,-3 0,-3 1,-1 2,-3 1,-1 2,-1 2,-3 1,-1 0,-2 -1,-4 1,-1 -1,-3 -2,-1 2,1 2,2 2,4 -1,-1 -4,-1 -2,1 2,1 -1,2 -1,2 1,-2 -2,-2 -3,-2 -1,-2 -2,-3 -4,-4 1,-1 3,1 4,1 2,1 1,0 0,-1 -1,-2 -1,-3 -2,-2 -1,1 -3,-2 -3,0 2,1 1,2 -1,2 -2,-1 -3,1 -5,0 -1,-1 -2,-1 -2,1 -1,1 0,3 -2,2 -3,-2 -2,1 -2,2 -2,1 -3,-1 -4,-1 -1,2 0,-1 0,-2 -2,0 -2,0 -3,1 0,-1 -1,-3 0,-5 3,-1 -1,0 -1,-2 -1,-1 -1,-2 -2,-3 -1,-1 -1,2 0,2 0,2 2,2 1,4 0,1 -1,2 -1,4 0,2 2,2 2,4 1,1 2,3 1,3 -2,0 -2,-3 -3,-1 -2,1 0,-2 -1,-3 -1,0 -2,-3 -3,-2 1,1 2,4 0,3 -2,-1 -1,-4 -2,-6 -2,0 -1,3 -1,4 1,2 -1,1 -2,1 -1,-1 -2,1 -4,0 -1,0 -3,1 -4,0 1,-1 3,-2 0,-3 -1,0 -2,-3 -3,-1 0,2 1,3 1,4 -1,3 -2,6 -2,9 1,1 2,2 1,4 1,1 1,2 3,3 0,1 2,3 -1,2 -1,1 -2,-2 -3,-1 -2,1 -1,-2 -1,-3 0,-2 -1,-4 -1,-6 1,-1 2,-2 2,-3 1,-4 1,-7 -1,-10 0,-2 -1,-3 -2,-3 -1,-1 -4,-3 -4,-4 1,-2 1,-3 0,-5 0,-1 2,-2 3,-3 2,0 3,1 4,-1 1,0 2,-2 4,-1 1,0 -1,-2 0,-3 1,-2 0,-4 -1,-2 -2,1 -1,-2 -1,-3 1,-2 -1,-2 -1,0 -1,1 -2,-1 -3,-1 -2,-2 -3,1 -1,1 2,0 1,3 2,4 1,2 -1,2 -3,2 -1,0 0,3 -2,2 -2,-1 1,1 0,2 0,1 -2,1 -2,3 1,1 0,3 -2,2 -1,-2 -2,-4 -4,-5 -2,-1 -4,-2 -6,-3 -1,0 -3,-1 -4,0 -2,-1 2,-1 3,-1 1,-1 2,0 3,1 1,2 3,0 1,-1 -1,-1 -2,-2 -4,-2 -1,-1 -3,1 -3,0 0,-1 2,-2 1,-3 0,-2 3,-1 3,-2 2,-1 3,-3 3,-5 0,-1 3,-2 2,-2 -1,0 -2,2 -4,2 -1,0 0,3 -2,2 -2,1 -3,2 -3,3 -2,1 -4,-2 -5,0 1,0 3,0 3,2 1,2 -2,4 -4,3 -1,0 -3,-1 -5,0 -1,1 -2,-1 -3,-2 -1,0 -1,-2 -2,-3 -1,-2 -1,-5 -3,-6 0,-1 -1,-2 -1,-2 1,-2 2,-4 1,-5)"/> 
    <path
       id="CotedArmorMorbihan"
       d="m 0,0(d22_4|c -3,-2 -4,1 -7,1 -2,3 -4,0 -4,-3 -1,-2 -2,-6 -5,-7 -4,1 -7,3 -11,2 -4,0 0,3 0,5 -1,4 -6,5 -5,9 -3,2 -6,4 -8,6 -4,2 -7,0 -6,-4 1,-3 3,-7 2,-11 -2,-4 -5,2 -7,2 -4,-4 -6,4 -8,3 0,-4 -1,-9 -5,-10 -3,2 -6,-1 -8,-4 -3,0 -6,-3 -9,-1 -5,3 -5,-5 -6,-6 -4,-2 -9,-3 -13,-1 0,3 -1,7 -5,6 -3,-2 -5,0 -6,3 -2,-2 -4,-1 -7,-1 -1,-1 -3,-3 -5,-2 0,-4 -4,-3 -6,-2 -3,2 -10,3 -6,-2 1,-3 -3,-2 -5,-2 -3,-3 -9,2 -11,-2)"/> 
    <path
       d="m 0,0(d22_2|c 2,3 5,4 8,5 0,1 0,5 2,2 1,-2 3,-2 4,-2 l 0,0)"/> 
    <path
       d="m 0,0(d22_3|c 0,1 1,2 2,4 1,0 1,2 0,3 -1,2 1,4 1,2 1,-2 3,-1 3,-2 1,-1 0,-2 -1,-2 l 0,0)"/> 
    <path
       d="m 0,0(d22_2s|c 0,1 1,2 2,4 1,0 1,2 0,3 -1,2 1,4 1,2 1,-2 3,-1 3,-2 1,-1 0,-2 -1,-2)"/>        
    <path
       d="m 0,0(d22_4s|c 2,-1 4,-2 4,0 2,4 -1,7 0,11 -3,0 0,4 -3,5 -4,2 1,8 -1,11 -3,3 2,6 0,8 -5,-2 -1,3 -3,6 0,3 -2,2 -4,2 -2,3 -4,3 -6,1 -4,-4 -5,2 -8,3 1,5 -4,0 -6,1 -6,1 -3,7 -6,9 -2,-2 -3,0 -2,2 1,4 -4,6 -4,8 0,1 -6,-1 -5,3 l 0,0)"/> 
    <path
       d="m 0,0(d22_5|c -3,-2 -4,1 -7,1 -2,3 -4,0 -4,-3 -1,-2 -2,-6 -5,-7 -4,1 -7,3 -11,2 -4,0 0,3 0,5 -1,4 -6,5 -5,9 -3,2 -6,4 -8,6 -4,2 -7,0 -6,-4 1,-3 3,-7 2,-11 -2,-4 -5,2 -7,2 -4,-4 -6,4 -8,3 0,-4 -1,-9 -5,-10 -3,2 -6,-1 -8,-4 -3,0 -6,-3 -9,-1 -5,3 -5,-5 -6,-6 -4,-2 -9,-3 -13,-1 0,3 -1,7 -5,6 -3,-2 -5,0 -6,3 -2,-2 -4,-1 -7,-1 -1,-1 -3,-3 -5,-2 0,-4 -4,-3 -6,-2 -3,2 -10,3 -6,-2 1,-3 -3,-2 -5,-2 -3,-3 -9,2 -11,-2 l 0,0)"/> 
    <path
       d="m 0,0(d22_6|c 0,-3 8,2 4,-3 -4,-2 -3,-8 1,-9 1,-2 2,-6 -2,-7 -1,-1 6,-5 1,-4 -3,0 0,-5 -1,-7 2,-4 -2,-5 -6,-7 2,-2 1,-7 5,-8 2,0 4,-2 1,-3 -5,-3 -4,-9 1,-11 2,-2 5,-4 1,-6 -1,-2 -6,-1 -3,-3 2,-6 -7,-3 -5,-8 -2,-3 -2,-7 -1,-10 1,-1 2,-2 3,-3)"/> 
  </defs>
</svg>
