<?xml version="1.0" encoding="UTF-8" standalone="no"?>
<svg viewBox="0 450 500 500" 
  xmlns:xlink="http://www.w3.org/1999/xlink" 
  xmlns:dc="http://purl.org/dc/elements/1.1/" 
  xmlns:cc="http://creativecommons.org/ns#" 
  xmlns:rdf="http://www.w3.org/1999/02/22-rdf-syntax-ns#" 
  xmlns:svg="http://www.w3.org/2000/svg" 
  xmlns="http://www.w3.org/2000/svg" version="1.0" 
  width="100%" height="100%" 
  onload="superpath.expandPaths()" 
  style="display:inline">
<script type="application/ecmascript" xlink:href="../Js/SuperPathExpander.js"></script>
  <g id="29 Finist&#232;re" style="display:inline">
    <path d="M244 512C243 513 242 514 241 515C240 518 240 522 242 525C240 530 249 527 247 533C244 535 249 534 250 536C254 538 251 540 249 542C244 544 243 550 248 553C251 554 249 556 247 556C243 557 244 562 242 564C246 566 250 567 248 571C249 573 246 578 249 578C254 577 247 581 248 582C252 583 251 587 250 589C246 590 245 596 249 598C253 603 245 598 245 601C242 602 238 602 236 604C232 607 227 604 225 609C225 611 221 616 225 615C230 615 223 622 228 622C231 625 230 629 232 632C232 635 234 638 237 636C240 636 244 634 247 638C250 639 251 641 252 644C253 644 255 642 257 642C262 638 262 648 261 650C257 652 261 657 259 659C256 658 253 660 253 663C250 666 245 666 245 661C241 662 242 667 244 670C245 671 244 673 243 675#chunk4|M83 547C84 549 80 547 83 547L83 547zM74 533C72 534 76 535 74 535C73 535 73 538 71 537C69 536 69 539 67 538C65 538 69 537 68 536C68 535 65 536 64 536C62 536 64 534 65 534C66 534 67 532 68 533C70 533 71 532 72 532C73 532 73 533 74 533zM201 495C201 496 204 497 203 498C201 497 200 496 199 497C197 495 200 496 201 495z" id="Dep_29" style="fill:#de3f00;fill-opacity:1;stroke:#aaaaaa;display:inline"></path>
  </g>
  <g id="22 
C&#244;tes-d&apos;Armor" style="display:inline">
    <path d="M421 538C420 539 421 541 421 542C423 545 426 546 429 547C429 548 429 552 431 549C432 547 434 547 435 547C435 548 436 549 437 551C438 551 438 553 437 554C436 556 438 558 438 556C439 554 441 555 441 554C442 553 441 552 440 552#chunk5|C393 620 392 623 389 623C387 626 385 623 385 620C384 618 383 614 380 613C376 614 373 616 369 615C365 615 369 618 369 620C368 624 363 625 364 629C361 631 358 633 356 635C352 637 349 635 350 631C351 628 353 624 352 620C350 616 347 622 345 622C341 618 339 626 337 625C337 621 336 616 332 615C329 617 326 614 324 611C321 611 318 608 315 610C310 613 310 605 309 604C305 602 300 601 296 603C296 606 295 610 291 609C288 607 286 609 285 612C283 610 281 611 278 611C277 610 275 608 273 609C273 605 269 606 267 607C264 609 257 610 261 605C262 602 258 603 256 603C253 600 247 605 245 601C245 598 253 603 249 598C245 596 246 590 250 589C251 587 252 583 248 582C247 581 254 577 249 578C246 578 249 573 248 571C250 567 246 566 242 564C244 562 243 557 247 556C249 556 251 554 248 553C243 550 244 544 249 542C251 540 254 538 250 536C249 534 244 535 247 533C249 527 240 530 242 525C240 522 240 518 241 515C242 514 243 513 244 512C245 512 246 510 247 512C247 514 250 514 251 512C252 511 250 510 250 508C250 507 250 505 251 504C252 503 254 503 255 504C258 503 255 503 255 502C255 500 254 499 253 498C251 498 251 497 251 495C252 494 252 491 254 492C256 493 258 491 257 490C256 489 257 487 258 487C260 488 260 484 261 486C262 487 263 486 264 487C264 485 266 485 266 487C267 488 268 490 270 489C272 489 269 491 269 492C270 493 272 492 274 492C276 492 275 489 277 489C278 489 280 489 281 488C282 487 284 487 286 488C287 489 288 487 289 487C290 489 291 486 292 485C293 484 294 482 296 483C297 484 294 486 296 487C297 489 296 491 295 492C295 494 293 495 294 496C294 495 295 493 296 493C298 492 298 489 299 488C301 488 301 487 303 486C304 485 305 486 306 485C306 484 308 484 309 483C311 482 311 484 311 485C311 486 312 488 311 489C309 490 312 491 311 492C311 493 309 495 309 496C309 499 305 499 306 502C305 503 305 505 306 503C307 501 309 501 309 500C310 498 310 496 311 494C312 493 312 491 314 492C315 494 317 492 318 492C320 493 318 494 319 495C320 496 317 496 317 498C315 498 314 499 316 499C317 499 317 499 317 499C317 500 316 500 317 501C318 503 321 502 323 504C324 505 326 502 326 503C325 504 328 504 327 506C326 507 328 508 326 509C325 511 328 511 328 512C328 513 329 514 330 515C332 515 331 517 332 519C333 521 336 520 337 522C337 524 340 524 339 526C339 528 339 530 340 532C339 533 338 535 340 535C341 536 342 537 343 537C345 538 344 540 346 541C347 541 349 542 350 543C350 544 350 545 349 546C347 547 350 546 350 548C350 550 352 549 352 551C353 553 354 553 354 551C354 549 353 547 356 546C357 547 358 549 359 548C361 547 362 545 363 545C365 544 365 542 367 541C368 539 369 538 370 537C372 536 373 538 374 536C376 535 378 534 380 533C381 532 382 530 380 530C378 530 379 528 381 528C383 528 385 527 387 528C387 529 387 532 388 530C389 529 391 529 392 528C393 527 394 527 395 526C396 526 398 526 398 524C398 522 400 521 400 523C399 525 401 526 403 526C403 527 401 528 401 529C401 531 398 532 397 534C398 535 398 537 400 535C401 533 403 533 404 532C405 531 407 529 407 531C406 532 408 533 407 535C406 536 408 537 409 537C409 539 409 540 410 541C410 543 411 544 412 542C413 541 412 539 413 537C415 538 412 542 414 543C416 543 418 541 416 541C415 539 417 538 418 536C419 536 419 538 421 538zM317 499C318 499 317 499 317 499zM253 489C255 489 254 491 252 491C251 491 252 490 253 489zM323 486C322 487 321 488 321 489C321 491 318 489 320 488C320 486 319 486 321 486C322 485 322 485 323 486z" id="Dep_22" style="fill:#be6a00;fill-opacity:1;stroke:#aaaaaa;display:inline"></path>
  </g>
  <g id="56 Morbihan" style="display:inline">
    <path d="M243 675C244 673 245 671 244 670C242 667 241 662 245 661C245 666 250 666 253 663C253 660 256 658 259 659C261 657 257 652 261 650C262 648 262 638 257 642C255 642 253 644 252 644C251 641 250 639 247 638C244 634 240 636 237 636C234 638 232 635 232 632C230 629 231 625 228 622C223 622 230 615 225 615C221 616 225 611 225 609C227 604 232 607 236 604C238 602 242 602 245 601C247 605 253 600 256 603C258 603 262 602 261 605C257 610 264 609 267 607C269 606 273 605 273 609C275 608 277 610 278 611C281 611 283 610 285 612C286 609 288 607 291 609C295 610 296 606 296 603C300 601 305 602 309 604C310 605 310 613 315 610C318 608 321 611 324 611C326 614 329 617 332 615C336 616 337 621 337 625C339 626 341 618 345 622C347 622 350 616 352 620C353 624 351 628 350 631C349 635 352 637 356 635C358 633 361 631 364 629C363 625 368 624 369 620C369 618 365 615 369 615C373 616 376 614 380 613C383 614 384 618 385 620C385 623 387 626 389 623C392 623 393 620 396 622#chunk6|C416 715 413 718 412 720C412 723 411 726 411 729C411 732 406 730 405 732C406 735 403 739 400 736C402 733 398 733 396 734C394 737 391 735 391 732C390 733 387 731 387 734C385 736 385 740 383 741C381 742 379 741 378 740C375 742 372 741 371 738C370 738 368 740 367 742C367 741 367 741 366 742C365 743 363 742 364 740C364 739 365 737 364 736C363 735 364 732 366 733C367 733 368 735 369 734C371 733 372 734 374 734C375 733 376 733 378 734C380 734 379 733 377 733C376 731 375 733 373 733C371 732 369 732 368 731C367 729 365 730 364 729C362 726 359 727 357 729C355 729 352 727 350 729C349 731 346 729 349 729C350 729 349 727 351 727C353 726 354 725 354 724C353 724 352 725 350 725C350 724 346 725 347 725C349 725 349 728 347 728C346 728 344 727 343 726C344 728 343 730 342 731C341 732 339 730 338 730C337 729 335 730 333 730C332 730 329 730 328 731C327 733 326 731 324 731C323 730 321 730 321 728C321 725 319 723 317 722C315 722 316 721 315 721C313 721 313 718 315 718C316 718 317 718 318 718C319 719 321 719 321 721C321 723 322 719 324 721C325 722 326 722 326 719C327 718 327 721 328 722C328 720 330 720 330 722C331 722 332 723 334 722C336 724 335 721 337 721C336 719 337 718 338 718C338 715 339 717 340 715C341 714 342 714 342 712C343 711 342 710 341 708C342 707 340 705 339 707C341 708 341 709 341 711C340 710 337 710 339 712C341 713 338 714 338 714C339 712 336 712 335 712C334 710 333 709 331 708C332 707 334 709 335 709C337 710 336 709 335 708C334 706 334 705 333 706C332 707 330 704 330 706C332 707 331 708 329 708C327 707 326 709 324 708C323 707 322 707 322 709C321 710 322 712 320 711C317 709 318 712 318 713C316 714 315 712 314 712C313 714 314 711 314 710C312 710 312 710 311 711C311 710 310 708 311 706C314 705 310 706 310 704C309 703 309 702 308 701C307 700 307 703 308 703C308 705 310 705 309 707C309 708 308 709 308 711C308 713 310 713 310 715C311 716 312 718 311 718C309 718 309 715 308 717C306 718 308 715 307 714C306 714 305 711 304 712C305 713 306 716 304 715C302 714 303 711 302 709C300 709 301 712 301 713C302 715 300 714 299 714C298 713 297 715 295 714C294 714 292 715 291 714C292 713 294 712 291 711C290 711 289 708 288 710C288 712 289 713 289 714C288 717 287 720 287 723C288 724 289 725 288 727C289 728 289 729 291 730C291 731 293 733 290 732C289 733 288 730 287 731C285 732 286 729 286 728C286 726 285 724 285 722C286 721 287 720 287 719C288 715 288 712 286 709C286 707 285 706 284 706C283 705 280 703 280 702C281 700 281 699 280 697C280 696 282 695 283 694C285 694 286 695 287 693C288 693 289 691 291 692C292 692 290 690 291 689C292 687 291 685 290 687C288 688 289 685 289 684C290 682 288 682 288 684C287 685 286 683 285 683C283 681 282 684 284 684C286 684 285 687 286 688C287 690 285 690 283 690C282 690 283 693 281 692C279 691 282 693 281 694C281 695 279 695 279 697C280 698 279 700 277 699C276 697 275 695 273 694C271 693 269 692 267 691C266 691 264 690 263 691C261 690 265 690 266 690C267 689 268 690 269 691C270 693 272 691 270 690C269 689 268 688 266 688C265 687 263 689 263 688C263 687 265 686 264 685C264 683 267 684 267 683C269 682 270 680 270 678C270 677 273 676 272 676C271 676 270 678 268 678C267 678 268 681 266 680C264 681 263 682 263 683C261 684 259 681 258 683C259 683 261 683 261 685C262 687 259 689 257 688C256 688 254 687 252 688C251 689 250 687 249 686C248 686 248 684 247 683C246 681 246 678 244 677C244 676 243 675 243 675zM316 757C317 756 319 757 316 758C315 759 313 756 316 757zM304 746C305 747 306 748 308 747C306 748 306 749 304 748C303 748 302 745 303 746L304 746L304 746zM272 746C274 747 275 747 276 748C277 748 278 750 280 750C281 750 283 751 282 753C283 753 282 756 284 756C286 756 286 759 288 759C289 759 291 759 292 760C292 761 292 762 290 763C290 765 289 766 288 765C287 764 285 762 284 764C283 763 281 763 280 762C279 762 278 762 276 762C275 762 273 761 273 760C271 759 271 758 272 757C272 755 270 754 270 752C269 751 269 749 270 748C271 749 270 745 271 745#chunk2|M324 712C326 713 325 714 323 713C321 714 323 716 322 717C321 719 321 715 322 715C322 713 322 712 324 711C324 711 323 712 324 712zM329 712C330 713 331 715 330 713C329 713 327 716 327 714C327 712 328 713 329 711!chunk1|M289 690C291 691 288 692 287 692C287 691 289 690 289 689C289 689 289 689 289 690zM246 696C248 696 249 699 252 698C253 698 255 701 253 702C252 702 251 701 249 701C247 701 245 699 244 698C243 696 244 696 246 696z" id="Dep_56" style="fill:#be0000;fill-opacity:1;stroke:#aaaaaa;display:inline"></path>
  </g>
  <g id="35 Ille-et-Vilaine" style="display:inline">
    <path d="M396 622#chunk6|#chunk9|C482 690 484 688 486 687#chunk10|C511 567 511 569 508 570#chunk11|C437 530 434 530 433 531#chunk12|#chunk5|zM435 547C433 547 432 547 431 549C429 552 429 548 429 547C426 546 423 545 421 542C421 541 420 539 421 538C420 537 418 535 418 534C420 533 421 533 422 533C423 531 424 533 426 533C427 533 429 532 430 533C430 535 431 535 432 536C433 537 431 539 433 540C433 541 433 543 435 544C436 544 433 546 435 547z" id="Dep_35" style="fill:#ff7f00;fill-opacity:1;stroke:#aaaaaa;display:inline"></path>
  </g>
  <g id="R&#233;gion Bretagne" style="display:inline">
    <path d="M295 482C293 483 292 484 292 485C291 486 290 489 289 487C288 487 287 489 286 488C284 487 282 487 281 488C280 489 278 489 277 489C275 489 276 492 274 492C272 492 270 493 269 492C269 491 272 489 270 489C268 490 267 488 266 487C266 485 264 485 264 487C263 486 262 487 261 486C260 484 260 488 258 487C257 487 256 489 257 490C258 491 256 493 254 492C252 491 252 494 251 495C251 497 251 498 253 498C254 499 255 500 255 502C255 503 258 503 255 504C254 503 252 503 251 504C250 505 250 507 250 508C250 510 252 511 251 512C250 514 247 514 247 512C246 510 245 512 244 512C242 512 242 510 243 509C243 508 241 509 240 509C238 510 237 508 235 508C235 506 232 505 231 505C229 504 227 506 226 505C225 504 225 503 224 502C223 504 223 506 222 504C220 504 221 507 220 507C218 508 220 510 220 511C219 513 218 511 218 510C217 508 217 511 218 512C218 514 218 515 218 516C218 517 219 520 217 519C217 517 216 516 214 516C212 515 211 513 212 511C214 511 211 510 210 510C209 511 209 513 207 513C206 514 206 515 206 512C207 511 207 509 205 509C204 507 206 506 204 505C204 504 205 502 205 500C205 499 203 499 202 501C202 502 200 501 199 502C198 502 197 503 195 503C194 503 196 507 194 507C193 508 193 508 192 506C192 504 190 507 189 505C187 504 184 505 182 505C179 505 178 508 176 509C174 510 175 512 177 511C179 512 175 513 174 512C173 511 172 511 170 511C168 511 167 512 166 513C166 514 163 514 163 512C165 512 165 510 165 509C165 508 164 507 163 507C162 505 160 505 159 506C157 507 156 508 153 509C152 509 150 508 150 510C150 510 153 511 152 512C150 511 149 512 148 512C147 510 146 512 145 513C143 513 140 514 140 511C139 511 137 511 136 511C136 513 135 512 133 512C132 514 136 514 135 515C133 516 136 517 137 517C135 518 134 518 132 517C130 517 130 516 130 515C128 515 128 517 128 519C126 521 129 519 130 521C130 523 131 524 129 523C129 522 127 521 126 520C125 519 124 520 122 520C121 519 120 520 119 521C118 520 115 520 116 522C116 524 114 522 113 522C112 523 111 524 110 526C108 526 109 528 107 529C105 530 106 533 107 535C107 537 109 536 109 537C108 539 107 537 106 538C105 540 105 543 104 544C103 545 103 547 104 548C106 548 103 550 105 551C107 552 106 555 104 555C102 554 104 557 103 558C104 559 104 562 106 562C108 561 110 562 112 562C114 562 113 560 114 559C115 557 117 559 118 559C120 560 121 560 122 561C125 562 127 560 130 559C134 559 136 557 139 556C141 555 144 555 146 554C148 554 150 555 152 554C155 553 158 552 161 551C163 551 161 552 160 553C157 555 153 555 150 556C148 556 148 558 146 559C145 559 143 561 143 563C144 564 141 565 142 566C144 565 145 565 147 564C150 564 146 566 147 567C149 567 150 567 151 566C152 565 153 563 154 564C156 565 157 562 158 563C156 564 158 565 159 564C160 563 161 562 163 563C165 563 162 563 162 564C163 566 160 566 159 566C159 567 158 567 157 568C156 570 159 568 160 570C161 570 163 567 162 570C164 571 164 572 165 572C166 571 168 570 167 572C166 573 168 574 170 574C170 574 174 574 172 574C170 575 168 575 167 574C165 575 164 577 162 576C159 575 161 574 163 574C163 573 160 573 159 573C157 572 155 574 153 574C151 575 149 575 147 575C146 575 145 573 145 572C143 572 141 571 139 572C138 572 136 573 135 572C135 571 133 569 133 571C132 573 130 571 130 570C128 569 131 568 131 566C131 565 133 564 132 563C130 563 129 564 128 565C126 565 126 568 126 569C127 571 126 574 124 573C123 571 122 571 121 572C121 573 121 575 120 576C122 574 123 576 123 577C125 578 126 577 128 577C130 577 130 580 128 581C126 581 127 583 127 584C128 586 129 589 127 591C126 592 128 594 129 592C130 590 132 589 133 587C133 586 135 584 135 583C136 581 139 581 140 582C142 582 143 582 143 584C145 584 145 585 146 586C148 585 149 586 149 587C150 590 152 588 154 588C156 589 158 592 157 595C157 596 158 598 159 598C160 600 159 602 158 604C159 605 158 607 157 608C156 610 155 608 153 608C151 608 151 605 148 605C146 606 144 606 141 606C139 607 137 606 135 607C133 609 130 607 127 608C126 609 125 610 124 609C122 608 120 609 119 609C117 610 115 610 113 609C112 608 111 611 110 610C109 610 106 608 106 610C106 612 107 614 105 614C103 614 106 615 107 615C108 617 110 616 112 617C113 618 114 617 115 617C116 619 118 619 119 620C120 621 120 622 122 622C124 623 125 620 127 620C128 620 127 622 129 622C131 622 132 625 134 626C136 628 139 631 140 634C142 636 143 639 144 641C145 643 145 645 146 647C146 650 147 653 146 655C144 655 142 656 143 657C143 659 142 661 144 661C146 660 147 661 148 661C150 661 151 662 152 662C153 662 155 663 156 663C158 663 159 663 161 663C162 663 163 662 165 662C166 661 168 659 169 657C169 655 165 657 166 655C168 654 165 654 165 653C164 651 166 650 166 649C168 648 168 651 168 652C169 652 169 654 171 653C172 652 173 652 174 652C175 651 173 650 173 648C172 647 171 646 171 644C171 642 173 641 172 643C172 645 174 646 174 648C176 648 175 649 175 650C176 651 177 653 179 652C180 651 182 652 182 654C182 656 183 655 184 654C185 654 186 654 187 654C188 656 185 655 184 656C186 656 188 655 190 654C191 653 189 651 190 650C191 648 189 648 191 647C192 647 193 649 194 648C194 650 196 650 196 652C196 653 199 653 199 654C200 655 197 656 199 657C202 657 200 658 200 659C201 661 203 662 204 664C205 665 205 666 205 668C206 668 207 666 209 667C211 669 214 669 217 668C218 667 219 666 220 666C222 665 220 668 222 668C223 669 224 671 226 671C227 671 229 670 229 672C231 674 234 673 237 674C238 674 240 676 241 675#chunk0|M322 485C322 485 321 485 321 486C319 486 320 486 320 488C318 489 321 491 321 489C321 488 322 487 323 486C322 485 322 485 322 485zM253 489C253 489 253 489 253 489C252 490 251 491 252 491C254 491 255 489 253 489zM201 495C200 496 197 495 199 497C200 496 201 497 203 498C204 497 201 496 201 495zM72 532C71 532 70 533 68 533C67 532 66 534 65 534C64 534 62 536 64 536C65 536 68 535 68 536C69 537 65 538 67 538C69 539 69 536 71 537C73 538 73 535 74 535C76 535 72 534 74 533C73 533 73 532 72 532zM421 539C420 539 420 540 421 540C420 540 420 539 421 539zM83 547C80 547 84 549 83 547L83 547zM289 689C289 690 287 692 287 692C288 692 291 691 289 690C289 689 289 689 289 689zM244 696C244 696 243 697 244 698C245 699 247 701 249 701C251 701 252 702 253 702C255 701 253 698 252 698C249 699 248 696 246 696C245 696 245 696 244 696zM324 711C322 712 322 713 322 715C321 715 321 719 322 717C323 716 321 714 323 713C325 714 326 713 324 712C323 712 324 711 324 711zM329 711C329 711 329 711 329 711C328 713 327 712 327 714C327 716 329 713 330 713C331 715 330 713 329 712#chunk1|M271 745C270 745 271 749 270 748C269 749 269 751 270 752C270 754 272 755 272 757C271 758 271 759 273 760C273 761 275 762 276 762C278 762 279 762 280 762C281 763 283 763 284 764C285 762 287 764 288 765C289 766 290 765 290 763C292 762 292 761 292 760C291 759 289 759 288 759C286 759 286 756 284 756C282 756 283 753 282 753C283 751 281 750 280 750C278 750 277 748 276 748C275 747 274 747 272 746C272 746 272 745 271 745#chunk2|M303 746C302 746 303 748 304 748C306 749 306 748 308 747C306 748 305 747 304 746L304 746L303 746#chunk3|M315 757C313 756 315 759 316 758C319 757 318 756 316 757C316 757 315 757 315 757z" id="Reg_Bretagne" style="fill:none;stroke:#000000;display:inline"></path>
  </g>
<defs>
<path d="M433,531(chunk12|C433 532 433 533 433 534C434 535 433 537 435 538C434 540 435 540 436 542C437 542 439 541 439 543C439 544 442 546 440 546C439 545 437 543 437 545C438 546 438 548 438 549C440 549 440 551 439 551C439 552 440 552 440 552)"></path>
<path d="M508,570(chunk11|C506 570 502 570 501 568C501 564 495 566 494 563C494 560 492 558 491 555C489 553 492 551 491 548C489 548 490 545 490 544C487 542 486 539 486 537C486 537 485 537 485 537C485 537 484 537 483 537C482 540 479 541 476 541C473 541 470 541 467 541C465 540 464 540 463 542C461 540 458 541 456 540C453 539 453 536 452 534C451 532 453 531 453 529C454 528 456 527 455 525C454 525 455 522 454 523C453 524 451 524 449 525C448 524 446 524 445 524C444 524 442 524 444 525C443 527 441 525 440 525C438 525 437 526 438 528)"></path>
<path d="M486,687(chunk10|C489 689 492 684 489 682C492 680 496 683 499 683C502 684 502 689 506 689C510 690 513 692 517 693C518 691 518 689 518 687C519 685 521 684 521 682C520 679 523 679 524 677C524 675 523 673 525 672C526 670 528 668 528 665C529 663 529 659 532 658C533 656 535 655 538 656C540 658 547 656 546 652C545 650 544 647 545 645C548 642 543 641 543 638C543 634 542 631 542 628C540 625 540 622 541 618C540 616 541 613 539 610C538 608 539 605 540 603C541 600 546 598 545 595C545 592 544 588 545 586C545 583 542 581 543 578C541 575 545 574 545 571C543 569 543 566 544 563C543 563 542 563 541 562C539 561 537 561 535 561C534 558 529 560 529 557C526 559 524 555 522 557C521 560 520 563 517 563C515 562 514 565 513 565)"></path>
<path d="M413,713(chunk9|C414 710 416 709 418 709C419 707 421 706 423 707C425 707 427 701 429 703C428 706 430 707 432 705C434 703 436 703 439 703C441 702 442 700 445 701C447 700 450 703 453 703C456 700 459 705 461 702C463 700 466 703 468 700C470 699 469 695 471 693C474 692 475 690 479 690)"></path>
<path d="M271,745(chunk2|C271 745 271 745 271 745)"></path>
<path d="M303,746(chunk3|C303 746 303 746 303 746)"></path>
<path d="M396,622(chunk6|C398 624 400 627 400 630C399 631 398 636 401 633C404 630 413 632 408 636C404 638 399 635 397 639C395 641 396 644 394 646C398 647 404 645 407 649C409 650 413 649 413 653C416 655 417 659 418 663C416 665 412 667 415 670C415 673 414 676 418 674C419 673 421 669 421 673C420 676 424 679 419 680C417 682 417 687 413 686C411 688 410 690 414 689C418 690 420 695 415 694C411 694 409 697 411 700C409 703 415 705 411 708C412 710 413 711 413 713)"></path>
<path d="M440,552(chunk5|C442 551 444 550 444 552C446 556 443 559 444 563C441 563 444 567 441 568C437 570 442 576 440 579C437 582 442 585 440 587C435 585 439 590 437 593C437 596 435 595 433 595C431 598 429 598 427 596C423 592 422 598 419 599C420 604 415 599 413 600C407 601 410 607 407 609C405 607 404 609 405 611C406 615 401 617 401 619C401 620 395 618 396 622)"></path>
<path d="M243,675(chunk4|C243 675 242 675 242 675C240 676 238 674 237 674C234 673 231 674 229 672C229 670 227 671 226 671C224 671 223 669 222 668C220 668 222 665 220 666C219 666 218 667 217 668C214 669 211 669 209 667C207 666 206 668 205 668C205 666 205 665 204 664C203 662 201 661 200 659C200 658 202 657 199 657C197 656 200 655 199 654C199 653 196 653 196 652C196 650 194 650 194 648C193 649 192 647 191 647C189 648 191 648 190 650C189 651 191 653 190 654C188 655 186 656 184 656C185 655 188 656 187 654C186 654 185 654 184 654C183 655 182 656 182 654C182 652 180 651 179 652C177 653 176 651 176 650C175 649 176 648 174 648C174 646 172 645 172 643C173 641 171 642 171 644C171 646 172 647 173 648C173 650 175 651 174 652C173 652 172 652 171 653C169 654 169 652 168 652C168 651 168 648 166 649C166 650 164 651 165 653C165 654 168 654 166 655C165 657 169 655 169 657C168 659 166 661 165 662C163 662 162 663 161 663C159 663 158 663 156 663C155 663 153 662 152 662C151 662 150 661 148 661C147 661 146 660 144 661C142 661 143 659 143 657C142 656 144 655 146 655C147 653 146 650 146 647C145 645 145 643 144 641C143 639 142 636 140 634C139 631 136 628 134 626C132 625 131 622 129 622C127 622 128 620 127 620C125 620 124 623 122 622C120 622 120 621 119 620C118 619 116 619 115 617C114 617 113 618 112 617C110 616 108 617 107 615C106 615 103 614 105 614C107 614 106 612 106 610C106 608 109 610 110 610C111 611 112 608 113 609C115 610 117 610 119 609C120 609 122 608 124 609C125 610 126 609 127 608C130 607 133 609 135 607C137 606 139 607 141 606C144 606 146 606 148 605C151 605 151 608 153 608C155 608 156 610 157 608C158 607 159 605 158 604C159 602 160 600 159 598C158 598 157 596 157 595C158 592 156 589 154 588C152 588 150 590 149 587C149 586 148 585 146 586C145 585 145 584 143 584C143 582 142 582 140 582C139 581 136 581 135 583C135 584 133 586 133 587C132 589 130 590 129 592C128 594 126 592 127 591C129 589 128 586 127 584C127 583 126 581 128 581C130 580 130 577 128 577C126 577 125 578 123 577C123 576 122 574 120 576C121 575 121 573 121 572C122 571 123 571 124 573C126 574 127 571 126 569C126 568 126 565 128 565C129 564 130 563 132 563C133 564 131 565 131 566C131 568 128 569 130 570C130 571 132 573 133 571C133 569 135 571 135 572C136 573 138 572 139 572C141 571 143 572 145 572C145 573 146 575 147 575C149 575 151 575 153 574C155 574 157 572 159 573C160 573 163 573 163 574C161 574 159 575 162 576C164 577 165 575 167 574C168 575 170 575 172 574C174 574 170 574 170 574C168 574 166 573 167 572C168 570 166 571 165 572C164 572 164 571 162 570C163 567 161 570 160 570C159 568 156 570 157 568C158 567 159 567 159 566C160 566 163 566 162 564C162 563 165 563 163 563C161 562 160 563 159 564C158 565 156 564 158 563C157 562 156 565 154 564C153 563 152 565 151 566C150 567 149 567 147 567C146 566 150 564 147 564C145 565 144 565 142 566C141 565 144 564 143 563C143 561 145 559 146 559C148 558 148 556 150 556C153 555 157 555 160 553C161 552 163 551 161 551C158 552 155 553 152 554C150 555 148 554 146 554C144 555 141 555 139 556C136 557 134 559 131 559C127 560 125 562 122 561C121 560 120 560 119 559C117 559 115 557 114 559C113 560 114 562 112 562C110 562 108 561 106 562C104 562 104 559 103 558C104 557 102 554 104 555C106 555 107 552 105 551C103 550 106 548 104 548C103 547 103 545 104 544C105 543 105 540 106 538C107 537 108 539 109 537C109 536 107 537 107 535C106 533 105 530 107 529C109 528 108 526 110 526C111 524 112 523 113 522C114 522 116 524 116 522C115 520 118 520 119 521C120 520 121 519 122 520C124 520 125 519 126 520C127 521 129 522 129 523C131 524 130 523 130 521C129 519 126 521 128 519C128 517 128 515 130 515C130 516 130 517 132 517C134 518 135 518 137 517C136 517 133 516 135 515C136 514 132 514 133 512C135 512 136 513 136 511C137 511 139 511 140 511C140 514 143 513 145 513C146 512 147 510 148 512C149 512 150 511 152 512C153 511 150 510 150 510C150 508 152 509 153 509C156 508 157 507 159 506C160 505 162 505 163 507C164 507 165 508 165 509C165 510 165 512 163 512C163 514 166 514 166 513C167 512 168 511 170 511C172 511 173 511 174 512C175 513 179 512 177 511C175 512 174 510 176 509C178 508 179 505 182 505C184 505 187 504 189 505C190 507 192 504 192 506C193 508 193 508 194 507C196 507 194 503 195 503C197 503 198 502 199 502C200 501 202 502 202 501C203 499 205 499 205 500C205 502 204 504 204 505C206 506 204 507 205 509C207 509 207 511 206 512C206 515 206 514 207 513C209 513 209 511 210 510C211 510 214 511 212 511C211 513 212 515 214 516C216 516 217 517 217 519C219 520 218 517 218 516C218 515 218 514 218 512C217 511 217 508 218 510C218 511 219 513 220 511C220 510 218 508 220 507C221 507 220 504 222 504C223 506 223 504 224 502C225 503 225 504 226 505C227 506 229 504 231 505C232 505 235 506 235 508C237 508 238 510 240 509C241 509 243 508 243 509C242 510 242 512 244 512)"></path>
<path d="M329,712(chunk1|C329 712 329 711 329 711)"></path>
<path d="M241,675(chunk0|C242 675 243 675 243 675C243 674 244 673 244 672C244 673 244 674 243 675C243 675 244 676 244 677C246 678 246 681 247 683C248 684 248 686 249 686C250 687 251 689 252 688C254 687 256 688 257 688C259 689 262 687 261 685C261 683 259 683 258 683C259 681 261 684 263 683C263 682 264 681 266 680C268 681 267 678 268 678C270 678 271 676 272 676C273 676 270 677 270 678C270 680 269 682 267 683C267 684 264 683 264 685C265 686 263 687 263 688C263 689 265 687 266 688C268 688 269 689 270 690C272 691 270 693 269 691C268 690 267 689 266 690C265 690 261 690 263 691C264 690 266 691 267 691C269 692 271 693 272 694C275 695 276 697 277 699C279 700 280 698 279 697C279 695 281 695 281 694C282 693 279 691 281 692C283 693 282 690 283 690C285 690 287 690 286 688C285 687 286 684 284 684C282 684 283 681 285 683C286 683 287 685 288 684C288 682 290 682 289 684C289 685 288 688 290 687C291 685 292 687 291 688C290 690 292 692 291 692C289 691 288 693 287 693C286 695 285 694 283 694C282 695 280 696 280 697C281 699 281 700 280 701C280 703 283 705 284 706C285 706 286 707 286 709C288 712 288 715 287 719C287 720 286 721 285 722C285 724 286 726 286 728C286 729 285 732 287 731C288 730 289 733 290 732C293 733 291 731 291 730C289 729 289 728 288 727C289 725 288 724 287 723C287 720 288 717 289 714C289 713 288 712 288 710C289 708 290 711 291 711C294 712 292 713 291 714C292 715 294 714 295 714C297 715 298 713 299 714C300 714 302 715 301 713C301 712 300 709 302 709C303 711 302 714 304 715C306 716 305 713 304 712C305 711 306 714 307 714C308 715 306 718 308 717C309 715 309 718 311 718C312 718 311 716 310 715C310 713 308 713 308 711C308 709 309 708 309 707C310 705 308 705 308 703C307 703 307 700 308 701C309 702 309 703 310 704C310 706 314 705 311 706C310 708 311 710 311 711C312 710 312 710 314 710C314 711 313 714 314 712C315 712 316 714 318 713C318 712 317 709 320 711C322 712 321 710 321 709C322 707 323 707 324 708C326 709 327 707 329 708C331 708 332 707 330 706C330 704 332 707 333 706C334 705 334 706 335 708C336 709 337 710 335 709C334 709 332 707 331 708C333 709 334 710 335 712C336 712 339 712 338 714C338 714 341 713 339 712C337 710 340 710 341 711C341 709 341 708 339 707C340 705 342 707 341 708C342 710 343 711 342 712C342 714 341 714 340 715C339 717 338 715 338 717C337 718 336 719 337 721C335 721 336 724 334 722C332 723 331 722 330 722C330 720 328 720 328 722C327 721 327 718 326 719C326 722 325 722 324 721C322 719 321 723 321 721C321 719 319 719 318 718C317 718 316 718 315 718C313 718 313 721 315 721C316 721 315 722 317 722C319 723 321 725 321 728C321 730 323 730 324 731C326 731 327 733 328 731C329 730 332 730 333 730C335 730 337 729 338 730C339 730 341 732 342 731C343 730 344 728 343 726C344 727 346 728 347 728C349 728 349 725 347 725C346 725 350 724 350 725C352 725 353 724 354 723C354 725 353 726 351 727C349 727 350 729 348 729C346 729 349 731 350 729C352 727 355 729 357 729C359 727 362 726 364 729C365 730 367 729 368 731C369 732 371 732 373 733C375 733 376 731 377 732C379 733 380 734 378 734C376 733 375 733 374 734C372 734 371 733 369 733C368 735 367 733 366 733C364 732 363 735 364 736C365 737 364 739 364 740C363 742 365 743 366 742C367 741 367 741 367 741C368 740 370 738 371 738C372 741 375 742 378 740C379 741 381 742 383 741C385 740 385 736 387 734C387 731 390 733 391 732C391 735 394 737 396 734C398 733 402 733 400 736C403 739 406 735 405 732C406 730 411 732 411 729C411 726 412 723 412 720C413 718 416 715 413 713C414 710 416 709 418 709C419 707 421 706 423 707C425 707 427 701 429 703C428 706 430 707 432 705C434 703 436 703 439 703C441 702 442 700 445 701C447 700 450 703 453 703C456 700 459 705 461 702C463 700 466 703 468 700C470 699 469 695 471 693C474 692 475 690 479 690C482 690 484 689 486 687C489 689 492 684 489 682C492 680 496 683 499 683C502 684 502 689 506 689C510 690 513 692 517 693C518 691 518 689 518 687C519 685 521 684 521 682C520 679 523 679 524 677C524 675 523 673 525 672C526 670 528 668 528 665C529 663 529 659 532 658C533 656 535 655 538 656C540 658 547 656 546 652C545 650 544 647 545 645C548 642 543 641 543 638C543 634 542 631 542 628C540 625 540 622 541 618C540 616 541 613 539 610C538 608 539 605 540 603C541 600 546 598 545 595C545 592 544 588 545 586C545 583 542 581 543 578C541 575 545 574 545 571C543 569 543 566 544 563C543 563 542 563 541 562C539 561 537 561 535 561C534 558 529 560 529 557C526 559 524 555 522 557C521 560 520 563 517 563C515 562 514 565 513 565C511 567 511 570 508 570C506 570 502 570 501 568C501 564 495 566 494 563C494 560 492 558 491 555C489 553 492 551 491 548C489 548 490 545 490 544C487 542 486 539 486 537C486 537 485 537 485 537C485 537 484 537 483 537C482 540 479 541 476 541C473 541 470 541 467 541C465 540 464 540 463 542C461 540 458 541 456 540C453 539 453 536 452 534C451 532 453 531 453 529C454 528 456 527 455 525C454 525 455 522 454 523C453 524 451 524 449 525C448 524 446 524 445 524C444 524 442 524 444 525C443 527 441 525 440 525C438 525 437 526 438 528C437 530 434 530 432 531C433 532 433 533 433 534C434 535 433 537 435 538C434 540 435 540 436 542C437 542 439 541 439 543C439 544 442 546 440 546C439 545 437 543 437 545C438 546 438 548 438 549C440 549 440 551 439 551C439 552 440 552 440 552C441 552 442 553 441 554C441 555 439 554 438 556C438 558 436 556 437 554C438 553 438 551 437 551C436 549 435 548 435 547C433 546 436 544 435 544C433 543 433 541 433 540C431 539 433 537 432 536C431 535 430 535 430 533C429 532 427 533 426 533C424 533 423 531 422 533C421 533 420 533 418 534C418 535 420 537 421 538C419 538 419 536 418 536C417 538 415 539 416 541C418 541 416 543 414 543C412 542 415 538 413 537C412 539 413 541 412 542C411 544 410 543 410 541C409 540 409 539 409 537C408 537 406 536 407 535C408 533 406 532 407 531C407 529 405 531 404 532C403 533 401 533 400 535C398 537 398 535 397 534C398 532 401 531 401 529C401 528 403 527 402 526C401 526 399 525 400 523C400 521 398 522 398 524C398 526 396 526 395 526C394 527 393 527 392 528C391 529 389 529 388 530C387 532 387 529 387 528C385 527 383 528 381 528C379 528 378 530 380 530C382 530 381 532 380 533C378 534 376 535 374 536C373 538 372 536 370 537C369 538 368 539 367 541C365 542 365 544 363 545C362 545 361 547 359 548C358 549 357 547 356 546C353 547 354 549 354 551C354 553 353 553 352 551C352 549 350 550 350 548C350 546 347 547 349 546C350 545 350 544 350 542C349 542 347 541 346 540C344 540 345 538 343 537C342 537 341 536 340 535C338 535 339 533 340 532C339 530 339 528 339 526C340 524 337 524 337 522C336 520 333 521 332 519C331 517 332 515 330 515C329 514 328 513 328 512C328 511 325 511 326 509C328 508 326 507 327 506C328 504 325 504 326 503C326 502 324 505 323 504C321 502 318 503 317 501C316 500 317 500 317 499C317 499 317 499 316 499C314 499 315 498 317 498C317 496 320 496 319 495C318 494 320 493 318 492C317 492 315 494 314 492C312 491 312 493 311 494C310 496 310 498 308 500C309 501 307 501 306 503C305 505 305 503 305 502C305 499 309 499 309 496C309 495 311 493 311 492C312 491 309 490 311 489C312 488 311 486 311 485C311 484 311 482 309 483C308 484 306 484 306 485C305 486 304 485 302 486C301 487 301 488 299 488C298 489 298 492 296 493C295 493 294 495 294 496C293 495 295 494 295 492C296 491 297 489 296 487C294 486 297 484 296 483C295 482 295 482 295 482)"></path>
</defs>
</svg>


